<ttFont>
<head>
    <!-- Most of this table will be recalculated by the compiler -->
    <tableVersion value="1.0"/>
    <fontRevision value="5.55"/>
    <checkSumAdjustment value="0xbd64af55"/>
    <magicNumber value="0x5f0f3cf5"/>
    <flags value="00000000 00000011"/>
    <unitsPerEm value="2048"/>
    <created value="Fri Jan  1 11:00:00 2021"/>
    <modified value="Tue Feb 20 19:56:40 2024"/>
    <xMin value="-995"/>
    <yMin value="-505"/>
    <xMax value="2015"/>
    <yMax value="1910"/>
    <macStyle value="00000000 00000000"/>
    <lowestRecPPEM value="6"/>
    <fontDirectionHint value="2"/>
    <indexToLocFormat value="0"/>
    <glyphDataFormat value="0"/>
  </head>
    <TTGlyph name=".notdef" xMin="100" yMin="0" xMax="1300" yMax="1800">
      <contour>
        <pt x="100" y="0" on="1"/>
        <pt x="100" y="1800" on="1"/>
        <pt x="1300" y="1800" on="1"/>
        <pt x="1300" y="0" on="1"/>
      </contour>
      <contour>
        <pt x="150" y="1750" on="1"/>
        <pt x="150" y="50" on="1"/>
        <pt x="1250" y="50" on="1"/>
        <pt x="1250" y="1750" on="1"/>
      </contour>
    </TTGlyph>
    <TTGlyph name="Ampersand" xMin="55" yMin="-25" xMax="1175" yMax="1485">
      <contour>
        <pt x="490" y="1485" on="1"/>
        <pt x="566" y="1485" on="0"/>
        <pt x="703" y="1418" on="0"/>
        <pt x="790" y="1291" on="0"/>
        <pt x="790" y="1200" on="1"/>
        <pt x="790" y="1101" on="0"/>
        <pt x="606" y="859" on="0"/>
        <pt x="470" y="740" on="1"/>
        <pt x="340" y="625" on="0"/>
        <pt x="230" y="463" on="0"/>
        <pt x="230" y="380" on="1"/>
        <pt x="230" y="324" on="0"/>
        <pt x="282" y="218" on="0"/>
        <pt x="383" y="150" on="0"/>
        <pt x="455" y="150" on="1"/>
        <pt x="521" y="150" on="0"/>
        <pt x="680" y="233" on="0"/>
        <pt x="833" y="362" on="0"/>
        <pt x="951" y="507" on="0"/>
        <pt x="975" y="570" on="1"/>
        <pt x="1080" y="435" on="1"/>
        <pt x="1051" y="375" on="0"/>
        <pt x="921" y="218" on="0"/>
        <pt x="745" y="71" on="0"/>
        <pt x="542" y="-25" on="0"/>
        <pt x="440" y="-25" on="1"/>
        <pt x="329" y="-25" on="0"/>
        <pt x="155" y="82" on="0"/>
        <pt x="55" y="263" on="0"/>
        <pt x="55" y="375" on="1"/>
        <pt x="55" y="489" on="0"/>
        <pt x="197" y="698" on="0"/>
        <pt x="350" y="840" on="1"/>
        <pt x="480" y="961" on="0"/>
        <pt x="630" y="1138" on="0"/>
        <pt x="630" y="1205" on="1"/>
        <pt x="630" y="1272" on="0"/>
        <pt x="535" y="1350" on="0"/>
        <pt x="475" y="1350" on="1"/>
        <pt x="417" y="1350" on="0"/>
        <pt x="315" y="1268" on="0"/>
        <pt x="315" y="1200" on="1"/>
        <pt x="315" y="1138" on="0"/>
        <pt x="418" y="982" on="0"/>
        <pt x="572" y="793" on="0"/>
        <pt x="650" y="680" on="1"/>
        <pt x="848" y="393" on="0"/>
        <pt x="1104" y="100" on="0"/>
        <pt x="1175" y="70" on="1"/>
        <pt x="1157" y="54" on="0"/>
        <pt x="1099" y="9" on="0"/>
        <pt x="1043" y="-25" on="0"/>
        <pt x="1025" y="-25" on="1"/>
        <pt x="986" y="-25" on="0"/>
        <pt x="729" y="294" on="0"/>
        <pt x="535" y="570" on="1"/>
        <pt x="449" y="693" on="0"/>
        <pt x="273" y="907" on="0"/>
        <pt x="155" y="1100" on="0"/>
        <pt x="155" y="1190" on="1"/>
        <pt x="155" y="1301" on="0"/>
        <pt x="256" y="1430" on="0"/>
        <pt x="411" y="1485" on="0"/>
      </contour>
    </TTGlyph>
    <TTGlyph name="Apos" xMin="200" yMin="1045" xMax="405" yMax="1585">
      <contour>
        <pt x="365" y="1045" on="1"/>
        <pt x="240" y="1045" on="1"/>
        <pt x="237" y="1151" on="0"/>
        <pt x="223" y="1401" on="0"/>
        <pt x="200" y="1585" on="1"/>
        <pt x="405" y="1585" on="1"/>
        <pt x="383" y="1401" on="0"/>
        <pt x="369" y="1151" on="0"/>
      </contour>
    </TTGlyph>
    <TTGlyph name="Asterisk" xMin="125" yMin="840" xMax="865" yMax="1600">
      <contour>
        <pt x="560" y="1600" on="1"/>
        <pt x="550" y="1500" on="0"/>
        <pt x="541" y="1365" on="0"/>
        <pt x="540" y="1300" on="1"/>
        <pt x="596" y="1336" on="0"/>
        <pt x="706" y="1417" on="0"/>
        <pt x="785" y="1480" on="1"/>
        <pt x="855" y="1355" on="1"/>
        <pt x="764" y="1313" on="0"/>
        <pt x="642" y="1251" on="0"/>
        <pt x="585" y="1220" on="1"/>
        <pt x="644" y="1189" on="0"/>
        <pt x="771" y="1137" on="0"/>
        <pt x="865" y="1100" on="1"/>
        <pt x="790" y="975" on="1"/>
        <pt x="708" y="1034" on="0"/>
        <pt x="596" y="1106" on="0"/>
        <pt x="540" y="1140" on="1"/>
        <pt x="543" y="1074" on="0"/>
        <pt x="555" y="940" on="0"/>
        <pt x="570" y="840" on="1"/>
        <pt x="430" y="840" on="1"/>
        <pt x="439" y="940" on="0"/>
        <pt x="449" y="1076" on="0"/>
        <pt x="450" y="1140" on="1"/>
        <pt x="395" y="1106" on="0"/>
        <pt x="284" y="1022" on="0"/>
        <pt x="205" y="960" on="1"/>
        <pt x="135" y="1085" on="1"/>
        <pt x="226" y="1126" on="0"/>
        <pt x="348" y="1188" on="0"/>
        <pt x="405" y="1220" on="1"/>
        <pt x="347" y="1251" on="0"/>
        <pt x="219" y="1303" on="0"/>
        <pt x="125" y="1340" on="1"/>
        <pt x="200" y="1465" on="1"/>
        <pt x="282" y="1407" on="0"/>
        <pt x="395" y="1333" on="0"/>
        <pt x="450" y="1300" on="1"/>
        <pt x="448" y="1365" on="0"/>
        <pt x="429" y="1500" on="0"/>
        <pt x="415" y="1600" on="1"/>
      </contour>
    </TTGlyph>
    <TTGlyph name="AtSgn" xMin="95" yMin="-235" xMax="1605" yMax="1405">
      <contour>
        <pt x="1605" y="700" on="1"/>
        <pt x="1605" y="534" on="0"/>
        <pt x="1500" y="302" on="0"/>
        <pt x="1338" y="180" on="0"/>
        <pt x="1250" y="180" on="1"/>
        <pt x="1189" y="180" on="0"/>
        <pt x="1098" y="265" on="0"/>
        <pt x="1045" y="406" on="0"/>
        <pt x="1040" y="490" on="1"/>
        <pt x="1021" y="444" on="0"/>
        <pt x="954" y="337" on="0"/>
        <pt x="870" y="243" on="0"/>
        <pt x="779" y="183" on="0"/>
        <pt x="735" y="183" on="1"/>
        <pt x="668" y="183" on="0"/>
        <pt x="539" y="258" on="0"/>
        <pt x="455" y="412" on="0"/>
        <pt x="455" y="530" on="1"/>
        <pt x="455" y="622" on="0"/>
        <pt x="495" y="776" on="0"/>
        <pt x="530" y="835" on="1"/>
        <pt x="592" y="937" on="0"/>
        <pt x="757" y="1040" on="0"/>
        <pt x="880" y="1040" on="1"/>
        <pt x="941" y="1040" on="0"/>
        <pt x="1110" y="1006" on="0"/>
        <pt x="1175" y="980" on="1"/>
        <pt x="1175" y="630" on="1"/>
        <pt x="1175" y="465" on="0"/>
        <pt x="1236" y="315" on="0"/>
        <pt x="1280" y="315" on="1"/>
        <pt x="1314" y="315" on="0"/>
        <pt x="1401" y="393" on="0"/>
        <pt x="1465" y="551" on="0"/>
        <pt x="1465" y="670" on="1"/>
        <pt x="1465" y="836" on="0"/>
        <pt x="1331" y="1108" on="0"/>
        <pt x="1067" y="1270" on="0"/>
        <pt x="870" y="1270" on="1"/>
        <pt x="747" y="1270" on="0"/>
        <pt x="521" y="1175" on="0"/>
        <pt x="343" y="999" on="0"/>
        <pt x="240" y="754" on="0"/>
        <pt x="240" y="605" on="1"/>
        <pt x="240" y="390" on="0"/>
        <pt x="410" y="75" on="0"/>
        <pt x="697" y="-95" on="0"/>
        <pt x="870" y="-95" on="1"/>
        <pt x="940" y="-95" on="0"/>
        <pt x="1080" y="-55" on="0"/>
        <pt x="1145" y="-10" on="1"/>
        <pt x="1250" y="-118" on="1"/>
        <pt x="1175" y="-170" on="0"/>
        <pt x="956" y="-235" on="0"/>
        <pt x="855" y="-235" on="1"/>
        <pt x="708" y="-235" on="0"/>
        <pt x="436" y="-130" on="0"/>
        <pt x="221" y="75" on="0"/>
        <pt x="95" y="377" on="0"/>
        <pt x="95" y="575" on="1"/>
        <pt x="95" y="782" on="0"/>
        <pt x="222" y="1093" on="0"/>
        <pt x="442" y="1301" on="0"/>
        <pt x="724" y="1405" on="0"/>
        <pt x="880" y="1405" on="1"/>
        <pt x="1094" y="1405" on="0"/>
        <pt x="1420" y="1230" on="0"/>
        <pt x="1605" y="914" on="0"/>
      </contour>
      <contour>
        <pt x="850" y="905" on="1"/>
        <pt x="799" y="905" on="0"/>
        <pt x="692" y="852" on="0"/>
        <pt x="650" y="780" on="1"/>
        <pt x="628" y="743" on="0"/>
        <pt x="605" y="633" on="0"/>
        <pt x="605" y="575" on="1"/>
        <pt x="605" y="442" on="0"/>
        <pt x="694" y="320" on="0"/>
        <pt x="748" y="320" on="1"/>
        <pt x="782" y="320" on="0"/>
        <pt x="867" y="404" on="0"/>
        <pt x="950" y="532" on="0"/>
        <pt x="1013" y="668" on="0"/>
        <pt x="1025" y="720" on="1"/>
        <pt x="1025" y="870" on="1"/>
        <pt x="1000" y="882" on="0"/>
        <pt x="906" y="905" on="0"/>
      </contour>
    </TTGlyph>
    <TTGlyph name="CircumAccent" xMin="0" yMin="1170" xMax="850" yMax="1600">
      <component glyphName="CombCircum" x="995" y="0" flags="0x4"/>
    </TTGlyph>
    <TTGlyph name="Colon" xMin="185" yMin="-25" xMax="455" yMax="925">
      <contour>
        <pt x="185" y="790" on="1"/>
        <pt x="185" y="846" on="0"/>
        <pt x="265" y="925" on="0"/>
        <pt x="320" y="925" on="1"/>
        <pt x="376" y="925" on="0"/>
        <pt x="455" y="846" on="0"/>
        <pt x="455" y="790" on="1"/>
        <pt x="455" y="735" on="0"/>
        <pt x="376" y="655" on="0"/>
        <pt x="320" y="655" on="1"/>
        <pt x="265" y="655" on="0"/>
        <pt x="185" y="735" on="0"/>
      </contour>
      <contour>
        <pt x="185" y="110" on="1"/>
        <pt x="185" y="166" on="0"/>
        <pt x="265" y="245" on="0"/>
        <pt x="320" y="245" on="1"/>
        <pt x="376" y="245" on="0"/>
        <pt x="455" y="166" on="0"/>
        <pt x="455" y="110" on="1"/>
        <pt x="455" y="55" on="0"/>
        <pt x="376" y="-25" on="0"/>
        <pt x="320" y="-25" on="1"/>
        <pt x="265" y="-25" on="0"/>
        <pt x="185" y="55" on="0"/>
      </contour>
    </TTGlyph>
    <TTGlyph name="CombAcute" xMin="-750" yMin="1170" xMax="-170" yMax="1600">
      <contour>
        <pt x="-400" y="1600" on="1"/>
        <pt x="-170" y="1600" on="1"/>
        <pt x="-590" y="1170" on="1"/>
        <pt x="-750" y="1170" on="1"/>
      </contour>
    </TTGlyph>
    <TTGlyph name="CombCircum" xMin="-995" yMin="1170" xMax="-145" yMax="1600">
      <contour>
        <pt x="-845" y="1170" on="1"/>
        <pt x="-995" y="1170" on="1"/>
        <pt x="-655" y="1600" on="1"/>
        <pt x="-485" y="1600" on="1"/>
        <pt x="-145" y="1170" on="1"/>
        <pt x="-295" y="1170" on="1"/>
        <pt x="-570" y="1450" on="1"/>
      </contour>
    </TTGlyph>
    <TTGlyph name="CombDiaer" xMin="-910" yMin="1210" xMax="-230" yMax="1480">
      <contour>
        <pt x="-490" y="1345" on="1"/>
        <pt x="-490" y="1401" on="0"/>
        <pt x="-415" y="1480" on="0"/>
        <pt x="-360" y="1480" on="1"/>
        <pt x="-304" y="1480" on="0"/>
        <pt x="-230" y="1401" on="0"/>
        <pt x="-230" y="1345" on="1"/>
        <pt x="-230" y="1290" on="0"/>
        <pt x="-304" y="1210" on="0"/>
        <pt x="-360" y="1210" on="1"/>
        <pt x="-415" y="1210" on="0"/>
        <pt x="-490" y="1290" on="0"/>
      </contour>
      <contour>
        <pt x="-910" y="1345" on="1"/>
        <pt x="-910" y="1401" on="0"/>
        <pt x="-835" y="1480" on="0"/>
        <pt x="-780" y="1480" on="1"/>
        <pt x="-724" y="1480" on="0"/>
        <pt x="-650" y="1401" on="0"/>
        <pt x="-650" y="1345" on="1"/>
        <pt x="-650" y="1290" on="0"/>
        <pt x="-724" y="1210" on="0"/>
        <pt x="-780" y="1210" on="1"/>
        <pt x="-835" y="1210" on="0"/>
        <pt x="-910" y="1290" on="0"/>
      </contour>
    </TTGlyph>
    <TTGlyph name="CombGrave" xMin="-940" yMin="1170" xMax="-360" yMax="1600">
      <contour>
        <pt x="-940" y="1600" on="1"/>
        <pt x="-710" y="1600" on="1"/>
        <pt x="-360" y="1170" on="1"/>
        <pt x="-520" y="1170" on="1"/>
      </contour>
    </TTGlyph>
    <TTGlyph name="CombRingAbv" xMin="-785" yMin="1170" xMax="-355" yMax="1600">
      <contour>
        <pt x="-470" y="1385" on="1"/>
        <pt x="-470" y="1430" on="0"/>
        <pt x="-525" y="1485" on="0"/>
        <pt x="-570" y="1485" on="1"/>
        <pt x="-615" y="1485" on="0"/>
        <pt x="-670" y="1430" on="0"/>
        <pt x="-670" y="1385" on="1"/>
        <pt x="-670" y="1340" on="0"/>
        <pt x="-615" y="1285" on="0"/>
        <pt x="-570" y="1285" on="1"/>
        <pt x="-525" y="1285" on="0"/>
        <pt x="-470" y="1340" on="0"/>
      </contour>
      <contour>
        <pt x="-785" y="1385" on="1"/>
        <pt x="-785" y="1475" on="0"/>
        <pt x="-660" y="1600" on="0"/>
        <pt x="-570" y="1600" on="1"/>
        <pt x="-480" y="1600" on="0"/>
        <pt x="-355" y="1475" on="0"/>
        <pt x="-355" y="1385" on="1"/>
        <pt x="-355" y="1295" on="0"/>
        <pt x="-480" y="1170" on="0"/>
        <pt x="-570" y="1170" on="1"/>
        <pt x="-660" y="1170" on="0"/>
        <pt x="-785" y="1295" on="0"/>
      </contour>
    </TTGlyph>
    <TTGlyph name="CombTilde" xMin="-925" yMin="1190" xMax="-215" yMax="1455">
      <contour>
        <pt x="-820" y="1205" on="1"/>
        <pt x="-925" y="1205" on="1"/>
        <pt x="-925" y="1266" on="0"/>
        <pt x="-879" y="1381" on="0"/>
        <pt x="-792" y="1455" on="0"/>
        <pt x="-733" y="1455" on="1"/>
        <pt x="-691" y="1455" on="0"/>
        <pt x="-612" y="1424" on="0"/>
        <pt x="-560" y="1403" on="1"/>
        <pt x="-506" y="1381" on="0"/>
        <pt x="-436" y="1355" on="0"/>
        <pt x="-405" y="1355" on="1"/>
        <pt x="-370" y="1355" on="0"/>
        <pt x="-325" y="1406" on="0"/>
        <pt x="-320" y="1440" on="1"/>
        <pt x="-215" y="1440" on="1"/>
        <pt x="-215" y="1376" on="0"/>
        <pt x="-263" y="1262" on="0"/>
        <pt x="-351" y="1190" on="0"/>
        <pt x="-413" y="1190" on="1"/>
        <pt x="-453" y="1190" on="0"/>
        <pt x="-534" y="1217" on="0"/>
        <pt x="-580" y="1238" on="1"/>
        <pt x="-638" y="1265" on="0"/>
        <pt x="-707" y="1290" on="0"/>
        <pt x="-735" y="1290" on="1"/>
        <pt x="-772" y="1290" on="0"/>
        <pt x="-816" y="1242" on="0"/>
      </contour>
    </TTGlyph>
    <TTGlyph name="Comma" xMin="185" yMin="-270" xMax="465" yMax="250">
      <contour>
        <pt x="185" y="50" on="1"/>
        <pt x="185" y="150" on="1"/>
        <pt x="195" y="197" on="0"/>
        <pt x="277" y="250" on="0"/>
        <pt x="320" y="250" on="1"/>
        <pt x="380" y="250" on="0"/>
        <pt x="465" y="161" on="0"/>
        <pt x="465" y="85" on="1"/>
        <pt x="465" y="-6" on="0"/>
        <pt x="378" y="-187" on="0"/>
        <pt x="290" y="-270" on="1"/>
        <pt x="190" y="-230" on="1"/>
        <pt x="219" y="-201" on="0"/>
        <pt x="282" y="-108" on="0"/>
        <pt x="325" y="-1" on="0"/>
        <pt x="325" y="50" on="1"/>
      </contour>
    </TTGlyph>
    <TTGlyph name="DigitEight" xMin="90" yMin="-25" xMax="1110" yMax="1485">
      <contour>
        <pt x="600" y="-25" on="1"/>
        <pt x="472" y="-25" on="0"/>
        <pt x="238" y="77" on="0"/>
        <pt x="90" y="270" on="0"/>
        <pt x="90" y="405" on="1"/>
        <pt x="90" y="508" on="0"/>
        <pt x="166" y="657" on="0"/>
        <pt x="286" y="760" on="0"/>
        <pt x="350" y="795" on="1"/>
        <pt x="311" y="817" on="0"/>
        <pt x="218" y="892" on="0"/>
        <pt x="150" y="1014" on="0"/>
        <pt x="150" y="1105" on="1"/>
        <pt x="150" y="1228" on="0"/>
        <pt x="285" y="1397" on="0"/>
        <pt x="495" y="1485" on="0"/>
        <pt x="610" y="1485" on="1"/>
        <pt x="725" y="1485" on="0"/>
        <pt x="926" y="1397" on="0"/>
        <pt x="1050" y="1228" on="0"/>
        <pt x="1050" y="1105" on="1"/>
        <pt x="1050" y="1014" on="0"/>
        <pt x="985" y="895" on="0"/>
        <pt x="894" y="820" on="0"/>
        <pt x="855" y="795" on="1"/>
        <pt x="910" y="767" on="0"/>
        <pt x="1028" y="662" on="0"/>
        <pt x="1110" y="508" on="0"/>
        <pt x="1110" y="405" on="1"/>
        <pt x="1110" y="270" on="0"/>
        <pt x="962" y="77" on="0"/>
        <pt x="729" y="-25" on="0"/>
      </contour>
      <contour>
        <pt x="860" y="1105" on="1"/>
        <pt x="860" y="1215" on="0"/>
        <pt x="707" y="1325" on="0"/>
        <pt x="600" y="1325" on="1"/>
        <pt x="493" y="1325" on="0"/>
        <pt x="340" y="1215" on="0"/>
        <pt x="340" y="1105" on="1"/>
        <pt x="340" y="988" on="0"/>
        <pt x="493" y="865" on="0"/>
        <pt x="600" y="865" on="1"/>
        <pt x="707" y="865" on="0"/>
        <pt x="860" y="988" on="0"/>
      </contour>
      <contour>
        <pt x="910" y="425" on="1"/>
        <pt x="910" y="550" on="0"/>
        <pt x="734" y="710" on="0"/>
        <pt x="600" y="710" on="1"/>
        <pt x="465" y="710" on="0"/>
        <pt x="290" y="550" on="0"/>
        <pt x="290" y="425" on="1"/>
        <pt x="290" y="294" on="0"/>
        <pt x="465" y="145" on="0"/>
        <pt x="600" y="145" on="1"/>
        <pt x="734" y="145" on="0"/>
        <pt x="910" y="294" on="0"/>
      </contour>
    </TTGlyph>
    <TTGlyph name="DigitFive" xMin="130" yMin="-25" xMax="1060" yMax="1460">
      <contour>
        <pt x="195" y="685" on="1"/>
        <pt x="195" y="1460" on="1"/>
        <pt x="1000" y="1460" on="1"/>
        <pt x="1000" y="1270" on="1"/>
        <pt x="944" y="1282" on="0"/>
        <pt x="828" y="1290" on="0"/>
        <pt x="765" y="1290" on="1"/>
        <pt x="380" y="1290" on="1"/>
        <pt x="380" y="920" on="1"/>
        <pt x="403" y="923" on="0"/>
        <pt x="490" y="930" on="0"/>
        <pt x="545" y="930" on="1"/>
        <pt x="689" y="930" on="0"/>
        <pt x="922" y="814" on="0"/>
        <pt x="1060" y="609" on="0"/>
        <pt x="1060" y="475" on="1"/>
        <pt x="1060" y="319" on="0"/>
        <pt x="919" y="95" on="0"/>
        <pt x="675" y="-25" on="0"/>
        <pt x="518" y="-25" on="1"/>
        <pt x="402" y="-25" on="0"/>
        <pt x="224" y="22" on="0"/>
        <pt x="130" y="80" on="1"/>
        <pt x="160" y="290" on="1"/>
        <pt x="261" y="209" on="0"/>
        <pt x="425" y="155" on="0"/>
        <pt x="530" y="155" on="1"/>
        <pt x="680" y="155" on="0"/>
        <pt x="870" y="319" on="0"/>
        <pt x="870" y="470" on="1"/>
        <pt x="870" y="571" on="0"/>
        <pt x="757" y="694" on="0"/>
        <pt x="590" y="750" on="0"/>
        <pt x="510" y="750" on="1"/>
        <pt x="431" y="750" on="0"/>
        <pt x="288" y="721" on="0"/>
      </contour>
    </TTGlyph>
    <TTGlyph name="DigitFour" xMin="90" yMin="0" xMax="1125" yMax="1480">
      <contour>
        <pt x="1125" y="395" on="1"/>
        <pt x="935" y="395" on="1"/>
        <pt x="935" y="0" on="1"/>
        <pt x="745" y="0" on="1"/>
        <pt x="745" y="395" on="1"/>
        <pt x="90" y="395" on="1"/>
        <pt x="90" y="550" on="1"/>
        <pt x="745" y="1480" on="1"/>
        <pt x="935" y="1480" on="1"/>
        <pt x="935" y="550" on="1"/>
        <pt x="1125" y="550" on="1"/>
      </contour>
      <contour>
        <pt x="745" y="1230" on="1"/>
        <pt x="263" y="550" on="1"/>
        <pt x="745" y="550" on="1"/>
      </contour>
    </TTGlyph>
    <TTGlyph name="DigitNine" xMin="112" yMin="-25" xMax="1114" yMax="1485">
      <contour>
        <pt x="193" y="65" on="1"/>
        <pt x="237" y="260" on="1"/>
        <pt x="302" y="196" on="0"/>
        <pt x="439" y="150" on="0"/>
        <pt x="511" y="150" on="1"/>
        <pt x="630" y="150" on="0"/>
        <pt x="814" y="279" on="0"/>
        <pt x="919" y="570" on="0"/>
        <pt x="919" y="813" on="1"/>
        <pt x="919" y="939" on="0"/>
        <pt x="858" y="1167" on="0"/>
        <pt x="717" y="1310" on="0"/>
        <pt x="596" y="1310" on="1"/>
        <pt x="464" y="1310" on="0"/>
        <pt x="306" y="1156" on="0"/>
        <pt x="306" y="1036" on="1"/>
        <pt x="306" y="904" on="0"/>
        <pt x="464" y="760" on="0"/>
        <pt x="583" y="760" on="1"/>
        <pt x="699" y="760" on="0"/>
        <pt x="893" y="876" on="0"/>
        <pt x="948" y="961" on="1"/>
        <pt x="1019" y="878" on="1"/>
        <pt x="971" y="798" on="0"/>
        <pt x="828" y="665" on="0"/>
        <pt x="655" y="586" on="0"/>
        <pt x="559" y="586" on="1"/>
        <pt x="420" y="586" on="0"/>
        <pt x="220" y="699" on="0"/>
        <pt x="112" y="888" on="0"/>
        <pt x="112" y="1002" on="1"/>
        <pt x="112" y="1154" on="0"/>
        <pt x="253" y="1370" on="0"/>
        <pt x="483" y="1485" on="0"/>
        <pt x="616" y="1485" on="1"/>
        <pt x="771" y="1485" on="0"/>
        <pt x="994" y="1307" on="0"/>
        <pt x="1114" y="989" on="0"/>
        <pt x="1114" y="780" on="1"/>
        <pt x="1114" y="642" on="0"/>
        <pt x="1055" y="358" on="0"/>
        <pt x="916" y="120" on="0"/>
        <pt x="679" y="-25" on="0"/>
        <pt x="501" y="-25" on="1"/>
        <pt x="413" y="-25" on="0"/>
        <pt x="271" y="13" on="0"/>
      </contour>
    </TTGlyph>
    <TTGlyph name="DigitOne" xMin="210" yMin="0" xMax="1040" yMax="1480">
      <contour>
        <pt x="535" y="170" on="1"/>
        <pt x="535" y="1260" on="1"/>
        <pt x="235" y="1088" on="1"/>
        <pt x="210" y="1268" on="1"/>
        <pt x="555" y="1480" on="1"/>
        <pt x="725" y="1480" on="1"/>
        <pt x="725" y="170" on="1"/>
        <pt x="1040" y="170" on="1"/>
        <pt x="1040" y="0" on="1"/>
        <pt x="220" y="0" on="1"/>
        <pt x="220" y="170" on="1"/>
      </contour>
    </TTGlyph>
    <TTGlyph name="DigitSeven" xMin="100" yMin="0" xMax="1090" yMax="1460">
      <contour>
        <pt x="460" y="0" on="1"/>
        <pt x="275" y="0" on="1"/>
        <pt x="337" y="212" on="0"/>
        <pt x="466" y="564" on="0"/>
        <pt x="609" y="869" on="0"/>
        <pt x="773" y="1151" on="0"/>
        <pt x="870" y="1295" on="1"/>
        <pt x="480" y="1295" on="1"/>
        <pt x="339" y="1295" on="0"/>
        <pt x="157" y="1287" on="0"/>
        <pt x="100" y="1275" on="1"/>
        <pt x="100" y="1460" on="1"/>
        <pt x="1090" y="1460" on="1"/>
        <pt x="1090" y="1300" on="1"/>
        <pt x="868" y="996" on="0"/>
        <pt x="557" y="344" on="0"/>
      </contour>
    </TTGlyph>
    <TTGlyph name="DigitSix" xMin="110" yMin="-25" xMax="1115" yMax="1485">
      <contour>
        <pt x="1033" y="1395" on="1"/>
        <pt x="989" y="1200" on="1"/>
        <pt x="925" y="1265" on="0"/>
        <pt x="787" y="1310" on="0"/>
        <pt x="715" y="1310" on="1"/>
        <pt x="597" y="1310" on="0"/>
        <pt x="411" y="1180" on="0"/>
        <pt x="305" y="889" on="0"/>
        <pt x="305" y="645" on="1"/>
        <pt x="305" y="519" on="0"/>
        <pt x="375" y="292" on="0"/>
        <pt x="520" y="150" on="0"/>
        <pt x="630" y="150" on="1"/>
        <pt x="762" y="150" on="0"/>
        <pt x="920" y="315" on="0"/>
        <pt x="920" y="435" on="1"/>
        <pt x="920" y="567" on="0"/>
        <pt x="779" y="720" on="0"/>
        <pt x="645" y="720" on="1"/>
        <pt x="529" y="720" on="0"/>
        <pt x="342" y="627" on="0"/>
        <pt x="280" y="550" on="1"/>
        <pt x="215" y="625" on="1"/>
        <pt x="300" y="741" on="0"/>
        <pt x="522" y="895" on="0"/>
        <pt x="665" y="895" on="1"/>
        <pt x="804" y="895" on="0"/>
        <pt x="1006" y="786" on="0"/>
        <pt x="1115" y="595" on="0"/>
        <pt x="1115" y="470" on="1"/>
        <pt x="1115" y="318" on="0"/>
        <pt x="985" y="96" on="0"/>
        <pt x="754" y="-25" on="0"/>
        <pt x="600" y="-25" on="1"/>
        <pt x="368" y="-25" on="0"/>
        <pt x="110" y="352" on="0"/>
        <pt x="110" y="680" on="1"/>
        <pt x="110" y="818" on="0"/>
        <pt x="170" y="1102" on="0"/>
        <pt x="309" y="1340" on="0"/>
        <pt x="547" y="1485" on="0"/>
        <pt x="725" y="1485" on="1"/>
        <pt x="814" y="1485" on="0"/>
        <pt x="955" y="1448" on="0"/>
      </contour>
    </TTGlyph>
    <TTGlyph name="DigitThree" xMin="110" yMin="-25" xMax="1090" yMax="1485">
      <contour>
        <pt x="410" y="870" on="1"/>
        <pt x="480" y="870" on="1"/>
        <pt x="580" y="870" on="0"/>
        <pt x="748" y="941" on="0"/>
        <pt x="850" y="1053" on="0"/>
        <pt x="850" y="1115" on="1"/>
        <pt x="850" y="1183" on="0"/>
        <pt x="770" y="1269" on="0"/>
        <pt x="651" y="1310" on="0"/>
        <pt x="590" y="1310" on="1"/>
        <pt x="475" y="1310" on="0"/>
        <pt x="300" y="1242" on="0"/>
        <pt x="215" y="1155" on="1"/>
        <pt x="180" y="1325" on="1"/>
        <pt x="240" y="1393" on="0"/>
        <pt x="455" y="1485" on="0"/>
        <pt x="580" y="1485" on="1"/>
        <pt x="704" y="1485" on="0"/>
        <pt x="913" y="1402" on="0"/>
        <pt x="1040" y="1247" on="0"/>
        <pt x="1040" y="1140" on="1"/>
        <pt x="1040" y="1049" on="0"/>
        <pt x="939" y="906" on="0"/>
        <pt x="791" y="815" on="0"/>
        <pt x="720" y="800" on="1"/>
        <pt x="773" y="791" on="0"/>
        <pt x="901" y="740" on="0"/>
        <pt x="1016" y="647" on="0"/>
        <pt x="1090" y="505" on="0"/>
        <pt x="1090" y="405" on="1"/>
        <pt x="1090" y="317" on="0"/>
        <pt x="1002" y="161" on="0"/>
        <pt x="850" y="42" on="0"/>
        <pt x="653" y="-25" on="0"/>
        <pt x="545" y="-25" on="1"/>
        <pt x="412" y="-25" on="0"/>
        <pt x="189" y="67" on="0"/>
        <pt x="110" y="140" on="1"/>
        <pt x="135" y="355" on="1"/>
        <pt x="217" y="263" on="0"/>
        <pt x="430" y="150" on="0"/>
        <pt x="565" y="150" on="1"/>
        <pt x="642" y="150" on="0"/>
        <pt x="794" y="211" on="0"/>
        <pt x="895" y="333" on="0"/>
        <pt x="895" y="425" on="1"/>
        <pt x="895" y="507" on="0"/>
        <pt x="786" y="630" on="0"/>
        <pt x="598" y="700" on="0"/>
        <pt x="480" y="700" on="1"/>
        <pt x="410" y="700" on="1"/>
      </contour>
    </TTGlyph>
    <TTGlyph name="DigitTwo" xMin="120" yMin="0" xMax="1080" yMax="1485">
      <contour>
        <pt x="1080" y="180" on="1"/>
        <pt x="1080" y="0" on="1"/>
        <pt x="120" y="0" on="1"/>
        <pt x="120" y="170" on="1"/>
        <pt x="201" y="228" on="0"/>
        <pt x="389" y="389" on="0"/>
        <pt x="571" y="576" on="0"/>
        <pt x="720" y="772" on="0"/>
        <pt x="810" y="962" on="0"/>
        <pt x="810" y="1045" on="1"/>
        <pt x="810" y="1139" on="0"/>
        <pt x="727" y="1253" on="0"/>
        <pt x="597" y="1305" on="0"/>
        <pt x="525" y="1305" on="1"/>
        <pt x="433" y="1305" on="0"/>
        <pt x="237" y="1201" on="0"/>
        <pt x="170" y="1120" on="1"/>
        <pt x="125" y="1290" on="1"/>
        <pt x="166" y="1346" on="0"/>
        <pt x="306" y="1434" on="0"/>
        <pt x="476" y="1485" on="0"/>
        <pt x="560" y="1485" on="1"/>
        <pt x="680" y="1485" on="0"/>
        <pt x="885" y="1382" on="0"/>
        <pt x="1010" y="1194" on="0"/>
        <pt x="1010" y="1065" on="1"/>
        <pt x="1010" y="964" on="0"/>
        <pt x="925" y="757" on="0"/>
        <pt x="785" y="557" on="0"/>
        <pt x="620" y="375" on="0"/>
        <pt x="456" y="221" on="0"/>
        <pt x="390" y="165" on="1"/>
        <pt x="645" y="165" on="1"/>
        <pt x="793" y="165" on="0"/>
        <pt x="1020" y="170" on="0"/>
      </contour>
    </TTGlyph>
    <TTGlyph name="DigitZero" xMin="90" yMin="-25" xMax="1110" yMax="1485">
      <contour>
        <pt x="910" y="715" on="1"/>
        <pt x="910" y="936" on="0"/>
        <pt x="839" y="1199" on="0"/>
        <pt x="701" y="1315" on="0"/>
        <pt x="600" y="1315" on="1"/>
        <pt x="455" y="1315" on="0"/>
        <pt x="290" y="1051" on="0"/>
        <pt x="290" y="745" on="1"/>
        <pt x="290" y="525" on="0"/>
        <pt x="363" y="262" on="0"/>
        <pt x="501" y="145" on="0"/>
        <pt x="600" y="145" on="1"/>
        <pt x="744" y="145" on="0"/>
        <pt x="910" y="410" on="0"/>
      </contour>
      <contour>
        <pt x="1110" y="740" on="1"/>
        <pt x="1110" y="519" on="0"/>
        <pt x="1030" y="224" on="0"/>
        <pt x="888" y="50" on="0"/>
        <pt x="699" y="-25" on="0"/>
        <pt x="590" y="-25" on="1"/>
        <pt x="446" y="-25" on="0"/>
        <pt x="220" y="112" on="0"/>
        <pt x="90" y="437" on="0"/>
        <pt x="90" y="720" on="1"/>
        <pt x="90" y="1002" on="0"/>
        <pt x="230" y="1337" on="0"/>
        <pt x="465" y="1485" on="0"/>
        <pt x="610" y="1485" on="1"/>
        <pt x="755" y="1485" on="0"/>
        <pt x="981" y="1340" on="0"/>
        <pt x="1110" y="1013" on="0"/>
      </contour>
    </TTGlyph>
    <TTGlyph name="DollarSgn" xMin="153" yMin="-220" xMax="1046" yMax="1600">
      <contour>
        <pt x="553" y="1600" on="1"/>
        <pt x="683" y="1600" on="1"/>
        <pt x="683" y="-220" on="1"/>
        <pt x="553" y="-220" on="1"/>
      </contour>
      <contour>
        <pt x="986" y="1306" on="1"/>
        <pt x="949" y="1127" on="1"/>
        <pt x="851" y="1182" on="0"/>
        <pt x="702" y="1228" on="0"/>
        <pt x="613" y="1228" on="1"/>
        <pt x="503" y="1228" on="0"/>
        <pt x="365" y="1107" on="0"/>
        <pt x="365" y="1030" on="1"/>
        <pt x="365" y="980" on="0"/>
        <pt x="407" y="903" on="0"/>
        <pt x="538" y="835" on="0"/>
        <pt x="669" y="796" on="1"/>
        <pt x="851" y="743" on="0"/>
        <pt x="1046" y="563" on="0"/>
        <pt x="1046" y="414" on="1"/>
        <pt x="1046" y="291" on="0"/>
        <pt x="921" y="104" on="0"/>
        <pt x="712" y="0" on="0"/>
        <pt x="586" y="0" on="1"/>
        <pt x="453" y="0" on="0"/>
        <pt x="224" y="70" on="0"/>
        <pt x="153" y="124" on="1"/>
        <pt x="195" y="313" on="1"/>
        <pt x="286" y="234" on="0"/>
        <pt x="484" y="161" on="0"/>
        <pt x="586" y="161" on="1"/>
        <pt x="660" y="161" on="0"/>
        <pt x="790" y="216" on="0"/>
        <pt x="871" y="322" on="0"/>
        <pt x="871" y="396" on="1"/>
        <pt x="871" y="444" on="0"/>
        <pt x="825" y="529" on="0"/>
        <pt x="684" y="610" on="0"/>
        <pt x="540" y="653" on="1"/>
        <pt x="397" y="696" on="0"/>
        <pt x="245" y="805" on="0"/>
        <pt x="190" y="939" on="0"/>
        <pt x="190" y="1017" on="1"/>
        <pt x="190" y="1076" on="0"/>
        <pt x="240" y="1205" on="0"/>
        <pt x="344" y="1318" on="0"/>
        <pt x="508" y="1389" on="0"/>
        <pt x="623" y="1389" on="1"/>
        <pt x="729" y="1389" on="0"/>
        <pt x="896" y="1350" on="0"/>
      </contour>
    </TTGlyph>
    <TTGlyph name="DottedCirc" xMin="95" yMin="0" xMax="1011" yMax="916">
      <contour>
        <pt x="443" y="837" on="1"/>
        <pt x="443" y="818" on="0"/>
        <pt x="418" y="789" on="0"/>
        <pt x="398" y="789" on="1"/>
        <pt x="379" y="789" on="0"/>
        <pt x="348" y="816" on="0"/>
        <pt x="348" y="837" on="1"/>
        <pt x="348" y="855" on="0"/>
        <pt x="378" y="885" on="0"/>
        <pt x="398" y="885" on="1"/>
        <pt x="417" y="885" on="0"/>
        <pt x="443" y="857" on="0"/>
      </contour>
      <contour>
        <pt x="758" y="79" on="1"/>
        <pt x="758" y="61" on="0"/>
        <pt x="730" y="31" on="0"/>
        <pt x="710" y="31" on="1"/>
        <pt x="692" y="31" on="0"/>
        <pt x="662" y="59" on="0"/>
        <pt x="662" y="80" on="1"/>
        <pt x="662" y="97" on="0"/>
        <pt x="691" y="127" on="0"/>
        <pt x="710" y="127" on="1"/>
        <pt x="730" y="127" on="0"/>
        <pt x="758" y="99" on="0"/>
      </contour>
      <contour>
        <pt x="310" y="749" on="1"/>
        <pt x="310" y="701" on="0"/>
        <pt x="263" y="701" on="1"/>
        <pt x="243" y="701" on="0"/>
        <pt x="215" y="728" on="0"/>
        <pt x="215" y="747" on="1"/>
        <pt x="215" y="767" on="0"/>
        <pt x="244" y="796" on="0"/>
        <pt x="263" y="796" on="1"/>
        <pt x="282" y="796" on="0"/>
        <pt x="310" y="769" on="0"/>
      </contour>
      <contour>
        <pt x="891" y="168" on="1"/>
        <pt x="891" y="149" on="0"/>
        <pt x="864" y="121" on="0"/>
        <pt x="843" y="121" on="1"/>
        <pt x="823" y="121" on="0"/>
        <pt x="795" y="149" on="0"/>
        <pt x="795" y="168" on="1"/>
        <pt x="795" y="188" on="0"/>
        <pt x="824" y="215" on="0"/>
        <pt x="843" y="215" on="1"/>
        <pt x="863" y="215" on="0"/>
        <pt x="891" y="190" on="0"/>
      </contour>
      <contour>
        <pt x="222" y="613" on="1"/>
        <pt x="222" y="594" on="0"/>
        <pt x="191" y="567" on="0"/>
        <pt x="173" y="567" on="1"/>
        <pt x="152" y="567" on="0"/>
        <pt x="126" y="597" on="0"/>
        <pt x="126" y="615" on="1"/>
        <pt x="126" y="635" on="0"/>
        <pt x="155" y="663" on="0"/>
        <pt x="173" y="663" on="1"/>
        <pt x="193" y="663" on="0"/>
        <pt x="222" y="633" on="0"/>
      </contour>
      <contour>
        <pt x="980" y="301" on="1"/>
        <pt x="980" y="281" on="0"/>
        <pt x="951" y="254" on="0"/>
        <pt x="932" y="254" on="1"/>
        <pt x="910" y="254" on="0"/>
        <pt x="884" y="283" on="0"/>
        <pt x="884" y="301" on="1"/>
        <pt x="884" y="324" on="0"/>
        <pt x="914" y="348" on="0"/>
        <pt x="932" y="348" on="1"/>
        <pt x="951" y="348" on="0"/>
        <pt x="980" y="321" on="0"/>
      </contour>
      <contour>
        <pt x="191" y="459" on="1"/>
        <pt x="191" y="439" on="0"/>
        <pt x="161" y="410" on="0"/>
        <pt x="143" y="410" on="1"/>
        <pt x="122" y="410" on="0"/>
        <pt x="95" y="439" on="0"/>
        <pt x="95" y="458" on="1"/>
        <pt x="95" y="478" on="0"/>
        <pt x="123" y="505" on="0"/>
        <pt x="143" y="505" on="1"/>
        <pt x="162" y="505" on="0"/>
        <pt x="191" y="478" on="0"/>
      </contour>
      <contour>
        <pt x="1011" y="458" on="1"/>
        <pt x="1011" y="439" on="0"/>
        <pt x="984" y="411" on="0"/>
        <pt x="964" y="411" on="1"/>
        <pt x="943" y="411" on="0"/>
        <pt x="915" y="439" on="0"/>
        <pt x="915" y="457" on="1"/>
        <pt x="915" y="477" on="0"/>
        <pt x="946" y="506" on="0"/>
        <pt x="964" y="506" on="1"/>
        <pt x="984" y="506" on="0"/>
        <pt x="1011" y="478" on="0"/>
      </contour>
      <contour>
        <pt x="222" y="302" on="1"/>
        <pt x="222" y="283" on="0"/>
        <pt x="194" y="253" on="0"/>
        <pt x="174" y="253" on="1"/>
        <pt x="155" y="253" on="0"/>
        <pt x="126" y="282" on="0"/>
        <pt x="126" y="302" on="1"/>
        <pt x="126" y="320" on="0"/>
        <pt x="154" y="348" on="0"/>
        <pt x="174" y="348" on="1"/>
        <pt x="194" y="348" on="0"/>
        <pt x="222" y="322" on="0"/>
      </contour>
      <contour>
        <pt x="980" y="615" on="1"/>
        <pt x="980" y="597" on="0"/>
        <pt x="952" y="567" on="0"/>
        <pt x="931" y="567" on="1"/>
        <pt x="913" y="567" on="0"/>
        <pt x="885" y="595" on="0"/>
        <pt x="885" y="614" on="1"/>
        <pt x="885" y="632" on="0"/>
        <pt x="911" y="663" on="0"/>
        <pt x="931" y="663" on="1"/>
        <pt x="949" y="663" on="0"/>
        <pt x="980" y="635" on="0"/>
      </contour>
      <contour>
        <pt x="310" y="168" on="1"/>
        <pt x="310" y="149" on="0"/>
        <pt x="283" y="120" on="0"/>
        <pt x="263" y="120" on="1"/>
        <pt x="244" y="120" on="0"/>
        <pt x="215" y="149" on="0"/>
        <pt x="215" y="168" on="1"/>
        <pt x="215" y="185" on="0"/>
        <pt x="244" y="215" on="0"/>
        <pt x="263" y="215" on="1"/>
        <pt x="284" y="215" on="0"/>
        <pt x="310" y="188" on="0"/>
      </contour>
      <contour>
        <pt x="890" y="748" on="1"/>
        <pt x="890" y="729" on="0"/>
        <pt x="863" y="700" on="0"/>
        <pt x="843" y="700" on="1"/>
        <pt x="824" y="700" on="0"/>
        <pt x="796" y="730" on="0"/>
        <pt x="796" y="748" on="1"/>
        <pt x="796" y="767" on="0"/>
        <pt x="822" y="796" on="0"/>
        <pt x="843" y="796" on="1"/>
        <pt x="863" y="796" on="0"/>
        <pt x="890" y="768" on="0"/>
      </contour>
      <contour>
        <pt x="444" y="78" on="1"/>
        <pt x="444" y="58" on="0"/>
        <pt x="414" y="31" on="0"/>
        <pt x="396" y="31" on="1"/>
        <pt x="377" y="31" on="0"/>
        <pt x="348" y="61" on="0"/>
        <pt x="348" y="78" on="1"/>
        <pt x="348" y="96" on="0"/>
        <pt x="377" y="126" on="0"/>
        <pt x="396" y="126" on="1"/>
        <pt x="416" y="126" on="0"/>
        <pt x="444" y="96" on="0"/>
      </contour>
      <contour>
        <pt x="758" y="836" on="1"/>
        <pt x="758" y="816" on="0"/>
        <pt x="728" y="789" on="0"/>
        <pt x="710" y="789" on="1"/>
        <pt x="690" y="789" on="0"/>
        <pt x="663" y="820" on="0"/>
        <pt x="663" y="838" on="1"/>
        <pt x="663" y="856" on="0"/>
        <pt x="691" y="885" on="0"/>
        <pt x="710" y="885" on="1"/>
        <pt x="730" y="885" on="0"/>
        <pt x="758" y="855" on="0"/>
      </contour>
      <contour>
        <pt x="601" y="47" on="1"/>
        <pt x="601" y="28" on="0"/>
        <pt x="573" y="0" on="0"/>
        <pt x="553" y="0" on="1"/>
        <pt x="534" y="0" on="0"/>
        <pt x="506" y="28" on="0"/>
        <pt x="506" y="47" on="1"/>
        <pt x="506" y="67" on="0"/>
        <pt x="534" y="95" on="0"/>
        <pt x="553" y="95" on="1"/>
        <pt x="573" y="95" on="0"/>
        <pt x="601" y="67" on="0"/>
      </contour>
      <contour>
        <pt x="601" y="868" on="1"/>
        <pt x="601" y="849" on="0"/>
        <pt x="573" y="821" on="0"/>
        <pt x="553" y="821" on="1"/>
        <pt x="534" y="821" on="0"/>
        <pt x="506" y="849" on="0"/>
        <pt x="506" y="868" on="1"/>
        <pt x="506" y="888" on="0"/>
        <pt x="534" y="916" on="0"/>
        <pt x="553" y="916" on="1"/>
        <pt x="573" y="916" on="0"/>
        <pt x="601" y="888" on="0"/>
      </contour>
    </TTGlyph>
    <TTGlyph name="EqSgn" xMin="120" yMin="480" xMax="1080" yMax="980">
      <contour>
        <pt x="120" y="480" on="1"/>
        <pt x="120" y="630" on="1"/>
        <pt x="1080" y="630" on="1"/>
        <pt x="1080" y="480" on="1"/>
      </contour>
      <contour>
        <pt x="120" y="830" on="1"/>
        <pt x="120" y="980" on="1"/>
        <pt x="1080" y="980" on="1"/>
        <pt x="1080" y="830" on="1"/>
      </contour>
    </TTGlyph>
    <TTGlyph name="ExclamationMrk" xMin="225" yMin="-25" xMax="495" yMax="1510">
      <contour>
        <pt x="450" y="440" on="1"/>
        <pt x="275" y="440" on="1"/>
        <pt x="270" y="658" on="0"/>
        <pt x="264" y="1185" on="0"/>
        <pt x="235" y="1510" on="1"/>
        <pt x="490" y="1510" on="1"/>
        <pt x="461" y="1185" on="0"/>
        <pt x="455" y="658" on="0"/>
      </contour>
      <contour>
        <pt x="225" y="110" on="1"/>
        <pt x="225" y="166" on="0"/>
        <pt x="305" y="245" on="0"/>
        <pt x="360" y="245" on="1"/>
        <pt x="416" y="245" on="0"/>
        <pt x="495" y="166" on="0"/>
        <pt x="495" y="110" on="1"/>
        <pt x="495" y="55" on="0"/>
        <pt x="416" y="-25" on="0"/>
        <pt x="360" y="-25" on="1"/>
        <pt x="305" y="-25" on="0"/>
        <pt x="225" y="55" on="0"/>
      </contour>
    </TTGlyph>
    <TTGlyph name="FullStop" xMin="185" yMin="-25" xMax="455" yMax="245">
      <contour>
        <pt x="185" y="110" on="1"/>
        <pt x="185" y="166" on="0"/>
        <pt x="265" y="245" on="0"/>
        <pt x="320" y="245" on="1"/>
        <pt x="376" y="245" on="0"/>
        <pt x="455" y="166" on="0"/>
        <pt x="455" y="110" on="1"/>
        <pt x="455" y="55" on="0"/>
        <pt x="376" y="-25" on="0"/>
        <pt x="320" y="-25" on="1"/>
        <pt x="265" y="-25" on="0"/>
        <pt x="185" y="55" on="0"/>
      </contour>
    </TTGlyph>
    <TTGlyph name="GTSgn" xMin="120" yMin="245" xMax="1100" yMax="1215">
      <contour>
        <pt x="120" y="1035" on="1"/>
        <pt x="120" y="1215" on="1"/>
        <pt x="1100" y="815" on="1"/>
        <pt x="1100" y="645" on="1"/>
        <pt x="120" y="245" on="1"/>
        <pt x="120" y="425" on="1"/>
        <pt x="910" y="730" on="1"/>
      </contour>
    </TTGlyph>
    <TTGlyph name="GraveAccent" xMin="0" yMin="1170" xMax="580" yMax="1600">
      <component glyphName="CombGrave" x="940" y="0" flags="0x4"/>
    </TTGlyph>
    <TTGlyph name="Hyphen" xMin="80" yMin="555" xMax="780" yMax="705">
      <contour>
        <pt x="80" y="555" on="1"/>
        <pt x="80" y="705" on="1"/>
        <pt x="780" y="705" on="1"/>
        <pt x="780" y="555" on="1"/>
      </contour>
    </TTGlyph>
    <TTGlyph name="HyphenMinus" xMin="80" yMin="555" xMax="780" yMax="705">
      <contour>
        <pt x="80" y="555" on="1"/>
        <pt x="80" y="705" on="1"/>
        <pt x="780" y="705" on="1"/>
        <pt x="780" y="555" on="1"/>
      </contour>
    </TTGlyph>
    <TTGlyph name="Hyphen_Soft" xMin="80" yMin="555" xMax="780" yMax="705">
      <component glyphName="HyphenMinus" x="0" y="0" flags="0x204"/>
    </TTGlyph>
    <TTGlyph name="LTSgn" xMin="100" yMin="245" xMax="1080" yMax="1215">
      <contour>
        <pt x="1080" y="425" on="1"/>
        <pt x="1080" y="245" on="1"/>
        <pt x="100" y="645" on="1"/>
        <pt x="100" y="815" on="1"/>
        <pt x="1080" y="1215" on="1"/>
        <pt x="1080" y="1035" on="1"/>
        <pt x="290" y="730" on="1"/>
      </contour>
    </TTGlyph>
    <TTGlyph name="LftCurlyBrac" xMin="210" yMin="-410" xMax="840" yMax="1640">
      <contour>
        <pt x="210" y="615" on="1"/>
        <pt x="210" y="627" on="0"/>
        <pt x="263" y="671" on="0"/>
        <pt x="337" y="721" on="0"/>
        <pt x="400" y="767" on="0"/>
        <pt x="410" y="780" on="1"/>
        <pt x="416" y="788" on="0"/>
        <pt x="424" y="890" on="0"/>
        <pt x="430" y="1043" on="0"/>
        <pt x="439" y="1216" on="0"/>
        <pt x="454" y="1377" on="0"/>
        <pt x="477" y="1495" on="0"/>
        <pt x="495" y="1515" on="1"/>
        <pt x="515" y="1538" on="0"/>
        <pt x="621" y="1585" on="0"/>
        <pt x="748" y="1627" on="0"/>
        <pt x="800" y="1640" on="1"/>
        <pt x="840" y="1500" on="1"/>
        <pt x="807" y="1489" on="0"/>
        <pt x="715" y="1452" on="0"/>
        <pt x="640" y="1414" on="0"/>
        <pt x="630" y="1400" on="1"/>
        <pt x="622" y="1388" on="0"/>
        <pt x="612" y="1289" on="0"/>
        <pt x="607" y="1147" on="0"/>
        <pt x="604" y="991" on="0"/>
        <pt x="600" y="850" on="0"/>
        <pt x="595" y="755" on="0"/>
        <pt x="590" y="745" on="1"/>
        <pt x="583" y="732" on="0"/>
        <pt x="534" y="694" on="0"/>
        <pt x="475" y="655" on="0"/>
        <pt x="432" y="623" on="0"/>
        <pt x="430" y="615" on="1"/>
        <pt x="432" y="607" on="0"/>
        <pt x="475" y="575" on="0"/>
        <pt x="534" y="536" on="0"/>
        <pt x="583" y="499" on="0"/>
        <pt x="590" y="485" on="1"/>
        <pt x="595" y="476" on="0"/>
        <pt x="600" y="380" on="0"/>
        <pt x="604" y="239" on="0"/>
        <pt x="607" y="83" on="0"/>
        <pt x="612" y="-59" on="0"/>
        <pt x="622" y="-158" on="0"/>
        <pt x="630" y="-170" on="1"/>
        <pt x="640" y="-184" on="0"/>
        <pt x="715" y="-222" on="0"/>
        <pt x="807" y="-258" on="0"/>
        <pt x="840" y="-270" on="1"/>
        <pt x="800" y="-410" on="1"/>
        <pt x="748" y="-396" on="0"/>
        <pt x="621" y="-355" on="0"/>
        <pt x="515" y="-307" on="0"/>
        <pt x="495" y="-285" on="1"/>
        <pt x="477" y="-265" on="0"/>
        <pt x="454" y="-147" on="0"/>
        <pt x="439" y="14" on="0"/>
        <pt x="430" y="187" on="0"/>
        <pt x="424" y="340" on="0"/>
        <pt x="416" y="442" on="0"/>
        <pt x="410" y="450" on="1"/>
        <pt x="400" y="464" on="0"/>
        <pt x="337" y="509" on="0"/>
        <pt x="263" y="559" on="0"/>
        <pt x="210" y="603" on="0"/>
      </contour>
    </TTGlyph>
    <TTGlyph name="LftParen" xMin="115" yMin="-410" xMax="630" yMax="1640">
      <contour>
        <pt x="115" y="625" on="1"/>
        <pt x="115" y="844" on="0"/>
        <pt x="225" y="1233" on="0"/>
        <pt x="423" y="1542" on="0"/>
        <pt x="555" y="1640" on="1"/>
        <pt x="630" y="1485" on="1"/>
        <pt x="454" y="1331" on="0"/>
        <pt x="305" y="893" on="0"/>
        <pt x="305" y="625" on="1"/>
        <pt x="305" y="365" on="0"/>
        <pt x="454" y="-72" on="0"/>
        <pt x="630" y="-265" on="1"/>
        <pt x="535" y="-410" on="1"/>
        <pt x="329" y="-196" on="0"/>
        <pt x="115" y="320" on="0"/>
      </contour>
    </TTGlyph>
    <TTGlyph name="LftSqrBrac" xMin="200" yMin="-410" xMax="640" yMax="1600">
      <contour>
        <pt x="640" y="-410" on="1"/>
        <pt x="200" y="-410" on="1"/>
        <pt x="200" y="1600" on="1"/>
        <pt x="640" y="1600" on="1"/>
        <pt x="640" y="1450" on="1"/>
        <pt x="385" y="1450" on="1"/>
        <pt x="385" y="-260" on="1"/>
        <pt x="640" y="-260" on="1"/>
      </contour>
    </TTGlyph>
    <TTGlyph name="LowLine" xMin="0" yMin="-320" xMax="1274" yMax="-170">
      <contour>
        <pt x="0" y="-320" on="1"/>
        <pt x="0" y="-170" on="1"/>
        <pt x="1274" y="-170" on="1"/>
        <pt x="1274" y="-320" on="1"/>
      </contour>
    </TTGlyph>
    <TTGlyph name="LtnCapA" xMin="40" yMin="0" xMax="1335" yMax="1460">
      <contour>
        <pt x="245" y="0" on="1"/>
        <pt x="40" y="0" on="1"/>
        <pt x="67" y="61" on="0"/>
        <pt x="129" y="215" on="0"/>
        <pt x="180" y="355" on="1"/>
        <pt x="580" y="1460" on="1"/>
        <pt x="795" y="1460" on="1"/>
        <pt x="1195" y="355" on="1"/>
        <pt x="1245" y="216" on="0"/>
        <pt x="1309" y="60" on="0"/>
        <pt x="1335" y="0" on="1"/>
        <pt x="1130" y="0" on="1"/>
        <pt x="994" y="385" on="1"/>
        <pt x="379" y="385" on="1"/>
      </contour>
      <contour>
        <pt x="940" y="540" on="1"/>
        <pt x="685" y="1265" on="1"/>
        <pt x="433" y="540" on="1"/>
      </contour>
    </TTGlyph>
    <TTGlyph name="LtnCapA.alt" xMin="40" yMin="0" xMax="1335" yMax="1460">
      <contour>
        <pt x="1130" y="1460" on="1"/>
        <pt x="1335" y="1460" on="1"/>
        <pt x="1308" y="1399" on="0"/>
        <pt x="1246" y="1245" on="0"/>
        <pt x="1195" y="1105" on="1"/>
        <pt x="795" y="0" on="1"/>
        <pt x="580" y="0" on="1"/>
        <pt x="180" y="1105" on="1"/>
        <pt x="130" y="1245" on="0"/>
        <pt x="66" y="1400" on="0"/>
        <pt x="40" y="1460" on="1"/>
        <pt x="245" y="1460" on="1"/>
        <pt x="381" y="1075" on="1"/>
        <pt x="996" y="1075" on="1"/>
      </contour>
      <contour>
        <pt x="435" y="920" on="1"/>
        <pt x="690" y="195" on="1"/>
        <pt x="942" y="920" on="1"/>
      </contour>
    </TTGlyph>
    <TTGlyph name="LtnCapADiaer" xMin="40" yMin="0" xMax="1335" yMax="1910">
      <component glyphName="LtnCapA" x="0" y="0" flags="0x204"/>
      <component glyphName="CombDiaer" x="1257" y="430" flags="0x4"/>
    </TTGlyph>
    <TTGlyph name="LtnCapB" xMin="160" yMin="-10" xMax="1140" yMax="1470">
      <contour>
        <pt x="365" y="1310" on="1"/>
        <pt x="365" y="855" on="1"/>
        <pt x="560" y="855" on="1"/>
        <pt x="721" y="855" on="0"/>
        <pt x="870" y="986" on="0"/>
        <pt x="870" y="1090" on="1"/>
        <pt x="870" y="1202" on="0"/>
        <pt x="741" y="1315" on="0"/>
        <pt x="590" y="1315" on="1"/>
        <pt x="532" y="1315" on="0"/>
        <pt x="397" y="1312" on="0"/>
      </contour>
      <contour>
        <pt x="175" y="455" on="1"/>
        <pt x="175" y="1000" on="1"/>
        <pt x="175" y="1147" on="0"/>
        <pt x="171" y="1400" on="0"/>
        <pt x="160" y="1460" on="1"/>
        <pt x="226" y="1465" on="0"/>
        <pt x="473" y="1470" on="0"/>
        <pt x="600" y="1470" on="1"/>
        <pt x="823" y="1470" on="0"/>
        <pt x="1065" y="1316" on="0"/>
        <pt x="1065" y="1120" on="1"/>
        <pt x="1065" y="994" on="0"/>
        <pt x="922" y="839" on="0"/>
        <pt x="820" y="800" on="1"/>
        <pt x="897" y="780" on="0"/>
        <pt x="1044" y="697" on="0"/>
        <pt x="1140" y="545" on="0"/>
        <pt x="1140" y="420" on="1"/>
        <pt x="1140" y="299" on="0"/>
        <pt x="1032" y="104" on="0"/>
        <pt x="797" y="-10" on="0"/>
        <pt x="605" y="-10" on="1"/>
        <pt x="504" y="-10" on="0"/>
        <pt x="320" y="-7" on="0"/>
        <pt x="187" y="-2" on="0"/>
        <pt x="160" y="0" on="1"/>
        <pt x="171" y="60" on="0"/>
        <pt x="175" y="307" on="0"/>
      </contour>
      <contour>
        <pt x="365" y="700" on="1"/>
        <pt x="365" y="155" on="1"/>
        <pt x="393" y="154" on="0"/>
        <pt x="526" y="150" on="0"/>
        <pt x="610" y="150" on="1"/>
        <pt x="696" y="150" on="0"/>
        <pt x="849" y="198" on="0"/>
        <pt x="945" y="316" on="0"/>
        <pt x="945" y="420" on="1"/>
        <pt x="945" y="700" on="0"/>
        <pt x="600" y="700" on="1"/>
      </contour>
    </TTGlyph>
    <TTGlyph name="LtnCapC" xMin="95" yMin="-25" xMax="1230" yMax="1485">
      <contour>
        <pt x="1190" y="335" on="1"/>
        <pt x="1230" y="140" on="1"/>
        <pt x="1172" y="86" on="0"/>
        <pt x="1005" y="13" on="0"/>
        <pt x="826" y="-25" on="0"/>
        <pt x="750" y="-25" on="1"/>
        <pt x="548" y="-25" on="0"/>
        <pt x="254" y="155" on="0"/>
        <pt x="95" y="485" on="0"/>
        <pt x="95" y="710" on="1"/>
        <pt x="95" y="903" on="0"/>
        <pt x="205" y="1194" on="0"/>
        <pt x="396" y="1388" on="0"/>
        <pt x="638" y="1485" on="0"/>
        <pt x="770" y="1485" on="1"/>
        <pt x="877" y="1485" on="0"/>
        <pt x="1108" y="1425" on="0"/>
        <pt x="1215" y="1345" on="1"/>
        <pt x="1155" y="1165" on="1"/>
        <pt x="1061" y="1250" on="0"/>
        <pt x="861" y="1315" on="0"/>
        <pt x="770" y="1315" on="1"/>
        <pt x="631" y="1315" on="0"/>
        <pt x="414" y="1185" on="0"/>
        <pt x="290" y="927" on="0"/>
        <pt x="290" y="735" on="1"/>
        <pt x="290" y="556" on="0"/>
        <pt x="412" y="293" on="0"/>
        <pt x="625" y="150" on="0"/>
        <pt x="760" y="150" on="1"/>
        <pt x="874" y="150" on="0"/>
        <pt x="1106" y="251" on="0"/>
      </contour>
    </TTGlyph>
    <TTGlyph name="LtnCapD" xMin="160" yMin="-10" xMax="1315" yMax="1470">
      <contour>
        <pt x="175" y="455" on="1"/>
        <pt x="175" y="1000" on="1"/>
        <pt x="175" y="1147" on="0"/>
        <pt x="171" y="1400" on="0"/>
        <pt x="160" y="1460" on="1"/>
        <pt x="203" y="1463" on="0"/>
        <pt x="367" y="1468" on="0"/>
        <pt x="548" y="1470" on="0"/>
        <pt x="615" y="1470" on="1"/>
        <pt x="679" y="1470" on="0"/>
        <pt x="858" y="1442" on="0"/>
        <pt x="1048" y="1360" on="0"/>
        <pt x="1213" y="1199" on="0"/>
        <pt x="1315" y="936" on="0"/>
        <pt x="1315" y="740" on="1"/>
        <pt x="1315" y="562" on="0"/>
        <pt x="1223" y="305" on="0"/>
        <pt x="1069" y="133" on="0"/>
        <pt x="880" y="33" on="0"/>
        <pt x="683" y="-10" on="0"/>
        <pt x="595" y="-10" on="1"/>
        <pt x="547" y="-10" on="0"/>
        <pt x="402" y="-7" on="0"/>
        <pt x="257" y="-3" on="0"/>
        <pt x="160" y="0" on="0"/>
        <pt x="160" y="0" on="1"/>
        <pt x="171" y="60" on="0"/>
        <pt x="174" y="307" on="0"/>
      </contour>
      <contour>
        <pt x="365" y="1305" on="1"/>
        <pt x="365" y="165" on="1"/>
        <pt x="400" y="162" on="0"/>
        <pt x="514" y="155" on="0"/>
        <pt x="585" y="155" on="1"/>
        <pt x="686" y="155" on="0"/>
        <pt x="876" y="216" on="0"/>
        <pt x="1030" y="350" on="0"/>
        <pt x="1120" y="566" on="0"/>
        <pt x="1120" y="720" on="1"/>
        <pt x="1120" y="944" on="0"/>
        <pt x="975" y="1201" on="0"/>
        <pt x="734" y="1310" on="0"/>
        <pt x="590" y="1310" on="1"/>
        <pt x="541" y="1310" on="0"/>
        <pt x="403" y="1307" on="0"/>
      </contour>
    </TTGlyph>
    <TTGlyph name="LtnCapE" xMin="160" yMin="0" xMax="1040" yMax="1460">
      <contour>
        <pt x="365" y="845" on="1"/>
        <pt x="935" y="845" on="1"/>
        <pt x="935" y="685" on="1"/>
        <pt x="365" y="685" on="1"/>
        <pt x="365" y="165" on="1"/>
        <pt x="629" y="165" on="1"/>
        <pt x="777" y="165" on="0"/>
        <pt x="980" y="170" on="0"/>
        <pt x="1040" y="180" on="1"/>
        <pt x="1040" y="0" on="1"/>
        <pt x="160" y="0" on="1"/>
        <pt x="171" y="60" on="0"/>
        <pt x="175" y="287" on="0"/>
        <pt x="175" y="435" on="1"/>
        <pt x="175" y="1025" on="1"/>
        <pt x="175" y="1173" on="0"/>
        <pt x="171" y="1400" on="0"/>
        <pt x="160" y="1460" on="1"/>
        <pt x="1010" y="1460" on="1"/>
        <pt x="1010" y="1295" on="1"/>
        <pt x="365" y="1295" on="1"/>
      </contour>
    </TTGlyph>
    <TTGlyph name="LtnCapF" xMin="160" yMin="0" xMax="1030" yMax="1460">
      <contour>
        <pt x="365" y="835" on="1"/>
        <pt x="945" y="835" on="1"/>
        <pt x="945" y="675" on="1"/>
        <pt x="365" y="675" on="1"/>
        <pt x="365" y="435" on="1"/>
        <pt x="365" y="287" on="0"/>
        <pt x="369" y="59" on="0"/>
        <pt x="380" y="0" on="1"/>
        <pt x="160" y="0" on="1"/>
        <pt x="171" y="60" on="0"/>
        <pt x="175" y="287" on="0"/>
        <pt x="175" y="435" on="1"/>
        <pt x="175" y="1020" on="1"/>
        <pt x="175" y="1168" on="0"/>
        <pt x="171" y="1400" on="0"/>
        <pt x="160" y="1460" on="1"/>
        <pt x="1030" y="1460" on="1"/>
        <pt x="1030" y="1295" on="1"/>
        <pt x="365" y="1295" on="1"/>
      </contour>
    </TTGlyph>
    <TTGlyph name="LtnCapG" xMin="95" yMin="-25" xMax="1275" yMax="1485">
      <contour>
        <pt x="1275" y="745" on="1"/>
        <pt x="1275" y="155" on="1"/>
        <pt x="1121" y="47" on="0"/>
        <pt x="875" y="-25" on="0"/>
        <pt x="745" y="-25" on="1"/>
        <pt x="556" y="-25" on="0"/>
        <pt x="263" y="148" on="0"/>
        <pt x="95" y="481" on="0"/>
        <pt x="95" y="720" on="1"/>
        <pt x="95" y="960" on="0"/>
        <pt x="280" y="1302" on="0"/>
        <pt x="594" y="1485" on="0"/>
        <pt x="785" y="1485" on="1"/>
        <pt x="907" y="1485" on="0"/>
        <pt x="1129" y="1433" on="0"/>
        <pt x="1260" y="1345" on="1"/>
        <pt x="1195" y="1165" on="1"/>
        <pt x="1083" y="1256" on="0"/>
        <pt x="885" y="1315" on="0"/>
        <pt x="785" y="1315" on="1"/>
        <pt x="633" y="1315" on="0"/>
        <pt x="410" y="1175" on="0"/>
        <pt x="290" y="920" on="0"/>
        <pt x="290" y="745" on="1"/>
        <pt x="290" y="561" on="0"/>
        <pt x="404" y="294" on="0"/>
        <pt x="614" y="150" on="0"/>
        <pt x="757" y="150" on="1"/>
        <pt x="846" y="150" on="0"/>
        <pt x="994" y="190" on="0"/>
        <pt x="1085" y="245" on="1"/>
        <pt x="1085" y="580" on="1"/>
        <pt x="735" y="580" on="1"/>
        <pt x="735" y="745" on="1"/>
      </contour>
    </TTGlyph>
    <TTGlyph name="LtnCapH" xMin="160" yMin="0" xMax="1290" yMax="1460">
      <contour>
        <pt x="1290" y="0" on="1"/>
        <pt x="1085" y="0" on="1"/>
        <pt x="1085" y="675" on="1"/>
        <pt x="365" y="675" on="1"/>
        <pt x="365" y="0" on="1"/>
        <pt x="160" y="0" on="1"/>
        <pt x="171" y="60" on="0"/>
        <pt x="175" y="287" on="0"/>
        <pt x="175" y="435" on="1"/>
        <pt x="175" y="1025" on="1"/>
        <pt x="175" y="1173" on="0"/>
        <pt x="171" y="1400" on="0"/>
        <pt x="160" y="1460" on="1"/>
        <pt x="365" y="1460" on="1"/>
        <pt x="365" y="835" on="1"/>
        <pt x="1085" y="835" on="1"/>
        <pt x="1085" y="1460" on="1"/>
        <pt x="1290" y="1460" on="1"/>
        <pt x="1279" y="1400" on="0"/>
        <pt x="1275" y="1173" on="0"/>
        <pt x="1275" y="1025" on="1"/>
        <pt x="1275" y="435" on="1"/>
        <pt x="1275" y="287" on="0"/>
        <pt x="1279" y="60" on="0"/>
      </contour>
    </TTGlyph>
    <TTGlyph name="LtnCapI" xMin="140" yMin="0" xMax="815" yMax="1460">
      <contour>
        <pt x="140" y="1460" on="1"/>
        <pt x="815" y="1460" on="1"/>
        <pt x="815" y="1315" on="1"/>
        <pt x="570" y="1315" on="1"/>
        <pt x="570" y="145" on="1"/>
        <pt x="815" y="145" on="1"/>
        <pt x="815" y="0" on="1"/>
        <pt x="140" y="0" on="1"/>
        <pt x="140" y="145" on="1"/>
        <pt x="380" y="145" on="1"/>
        <pt x="380" y="1315" on="1"/>
        <pt x="140" y="1315" on="1"/>
      </contour>
    </TTGlyph>
    <TTGlyph name="LtnCapJ" xMin="35" yMin="-25" xMax="780" yMax="1460">
      <contour>
        <pt x="575" y="1460" on="1"/>
        <pt x="780" y="1460" on="1"/>
        <pt x="780" y="535" on="1"/>
        <pt x="780" y="327" on="0"/>
        <pt x="670" y="82" on="0"/>
        <pt x="474" y="-25" on="0"/>
        <pt x="345" y="-25" on="1"/>
        <pt x="298" y="-25" on="0"/>
        <pt x="180" y="-1" on="0"/>
        <pt x="71" y="50" on="0"/>
        <pt x="35" y="90" on="1"/>
        <pt x="80" y="275" on="1"/>
        <pt x="130" y="217" on="0"/>
        <pt x="271" y="155" on="0"/>
        <pt x="340" y="155" on="1"/>
        <pt x="450" y="155" on="0"/>
        <pt x="590" y="313" on="0"/>
        <pt x="590" y="485" on="1"/>
        <pt x="590" y="980" on="1"/>
        <pt x="590" y="1126" on="0"/>
        <pt x="585" y="1381" on="0"/>
      </contour>
    </TTGlyph>
    <TTGlyph name="LtnCapK" xMin="160" yMin="0" xMax="1230" yMax="1460">
      <contour>
        <pt x="925" y="1460" on="1"/>
        <pt x="1165" y="1460" on="1"/>
        <pt x="530" y="740" on="1"/>
        <pt x="425" y="745" on="1"/>
        <pt x="295" y="703" on="1"/>
      </contour>
      <contour>
        <pt x="350" y="735" on="1"/>
        <pt x="485" y="860" on="1"/>
        <pt x="1230" y="0" on="1"/>
        <pt x="985" y="0" on="1"/>
      </contour>
      <contour>
        <pt x="365" y="1460" on="1"/>
        <pt x="365" y="0" on="1"/>
        <pt x="160" y="0" on="1"/>
        <pt x="171" y="60" on="0"/>
        <pt x="175" y="287" on="0"/>
        <pt x="175" y="435" on="1"/>
        <pt x="175" y="1025" on="1"/>
        <pt x="175" y="1173" on="0"/>
        <pt x="171" y="1400" on="0"/>
        <pt x="160" y="1460" on="1"/>
      </contour>
    </TTGlyph>
    <TTGlyph name="LtnCapL" xMin="160" yMin="0" xMax="1025" yMax="1460">
      <contour>
        <pt x="365" y="165" on="1"/>
        <pt x="589" y="165" on="1"/>
        <pt x="737" y="165" on="0"/>
        <pt x="965" y="170" on="0"/>
        <pt x="1025" y="180" on="1"/>
        <pt x="1025" y="0" on="1"/>
        <pt x="160" y="0" on="1"/>
        <pt x="171" y="60" on="0"/>
        <pt x="175" y="287" on="0"/>
        <pt x="175" y="435" on="1"/>
        <pt x="175" y="1025" on="1"/>
        <pt x="175" y="1173" on="0"/>
        <pt x="171" y="1400" on="0"/>
        <pt x="160" y="1460" on="1"/>
        <pt x="365" y="1460" on="1"/>
      </contour>
    </TTGlyph>
    <TTGlyph name="LtnCapM" xMin="160" yMin="0" xMax="1610" yMax="1460">
      <contour>
        <pt x="885" y="205" on="1"/>
        <pt x="1320" y="1460" on="1"/>
        <pt x="1487" y="1460" on="1"/>
        <pt x="985" y="0" on="1"/>
        <pt x="790" y="0" on="1"/>
        <pt x="285" y="1460" on="1"/>
        <pt x="455" y="1460" on="1"/>
      </contour>
      <contour>
        <pt x="230" y="1460" on="1"/>
        <pt x="405" y="1460" on="1"/>
        <pt x="377" y="1205" on="1"/>
        <pt x="345" y="0" on="1"/>
        <pt x="160" y="0" on="1"/>
        <pt x="166" y="42" on="0"/>
        <pt x="178" y="241" on="0"/>
        <pt x="192" y="509" on="0"/>
        <pt x="205" y="806" on="0"/>
        <pt x="216" y="1090" on="0"/>
        <pt x="225" y="1322" on="0"/>
        <pt x="230" y="1460" on="0"/>
      </contour>
      <contour>
        <pt x="1610" y="0" on="1"/>
        <pt x="1425" y="0" on="1"/>
        <pt x="1397" y="1205" on="1"/>
        <pt x="1365" y="1460" on="1"/>
        <pt x="1540" y="1460" on="1"/>
        <pt x="1540" y="1460" on="0"/>
        <pt x="1545" y="1322" on="0"/>
        <pt x="1553" y="1090" on="0"/>
        <pt x="1564" y="806" on="0"/>
        <pt x="1577" y="509" on="0"/>
        <pt x="1590" y="241" on="0"/>
        <pt x="1604" y="42" on="0"/>
      </contour>
    </TTGlyph>
    <TTGlyph name="LtnCapN" xMin="160" yMin="0" xMax="1315" yMax="1460">
      <contour>
        <pt x="200" y="1355" on="1"/>
        <pt x="340" y="1460" on="1"/>
        <pt x="1275" y="100" on="1"/>
        <pt x="1135" y="0" on="1"/>
      </contour>
      <contour>
        <pt x="1135" y="0" on="1"/>
        <pt x="1135" y="1460" on="1"/>
        <pt x="1315" y="1460" on="1"/>
        <pt x="1305" y="1400" on="0"/>
        <pt x="1300" y="1173" on="0"/>
        <pt x="1300" y="1025" on="1"/>
        <pt x="1300" y="0" on="1"/>
      </contour>
      <contour>
        <pt x="340" y="1460" on="1"/>
        <pt x="340" y="0" on="1"/>
        <pt x="160" y="0" on="1"/>
        <pt x="171" y="60" on="0"/>
        <pt x="175" y="287" on="0"/>
        <pt x="175" y="435" on="1"/>
        <pt x="175" y="1025" on="1"/>
        <pt x="175" y="1173" on="0"/>
        <pt x="171" y="1400" on="0"/>
        <pt x="160" y="1460" on="1"/>
      </contour>
    </TTGlyph>
    <TTGlyph name="LtnCapO" xMin="95" yMin="-25" xMax="1340" yMax="1485">
      <contour>
        <pt x="1145" y="715" on="1"/>
        <pt x="1145" y="900" on="0"/>
        <pt x="1038" y="1166" on="0"/>
        <pt x="847" y="1310" on="0"/>
        <pt x="720" y="1310" on="1"/>
        <pt x="594" y="1310" on="0"/>
        <pt x="400" y="1172" on="0"/>
        <pt x="290" y="918" on="0"/>
        <pt x="290" y="745" on="1"/>
        <pt x="290" y="563" on="0"/>
        <pt x="397" y="295" on="0"/>
        <pt x="590" y="150" on="0"/>
        <pt x="720" y="150" on="1"/>
        <pt x="843" y="150" on="0"/>
        <pt x="1035" y="285" on="0"/>
        <pt x="1145" y="538" on="0"/>
      </contour>
      <contour>
        <pt x="1340" y="740" on="1"/>
        <pt x="1340" y="560" on="0"/>
        <pt x="1234" y="276" on="0"/>
        <pt x="1055" y="79" on="0"/>
        <pt x="830" y="-25" on="0"/>
        <pt x="710" y="-25" on="1"/>
        <pt x="589" y="-25" on="0"/>
        <pt x="368" y="73" on="0"/>
        <pt x="195" y="263" on="0"/>
        <pt x="95" y="540" on="0"/>
        <pt x="95" y="720" on="1"/>
        <pt x="95" y="900" on="0"/>
        <pt x="201" y="1183" on="0"/>
        <pt x="382" y="1381" on="0"/>
        <pt x="609" y="1485" on="0"/>
        <pt x="730" y="1485" on="1"/>
        <pt x="849" y="1485" on="0"/>
        <pt x="1068" y="1387" on="0"/>
        <pt x="1240" y="1197" on="0"/>
        <pt x="1340" y="920" on="0"/>
      </contour>
    </TTGlyph>
    <TTGlyph name="LtnCapP" xMin="160" yMin="0" xMax="1115" yMax="1470">
      <contour>
        <pt x="365" y="565" on="1"/>
        <pt x="365" y="435" on="1"/>
        <pt x="365" y="287" on="0"/>
        <pt x="370" y="59" on="0"/>
        <pt x="380" y="0" on="1"/>
        <pt x="160" y="0" on="1"/>
        <pt x="171" y="60" on="0"/>
        <pt x="175" y="287" on="0"/>
        <pt x="175" y="435" on="1"/>
        <pt x="175" y="1000" on="1"/>
        <pt x="175" y="1147" on="0"/>
        <pt x="171" y="1400" on="0"/>
        <pt x="160" y="1460" on="1"/>
        <pt x="160" y="1460" on="0"/>
        <pt x="284" y="1465" on="0"/>
        <pt x="479" y="1470" on="0"/>
        <pt x="585" y="1470" on="1"/>
        <pt x="827" y="1470" on="0"/>
        <pt x="1115" y="1249" on="0"/>
        <pt x="1115" y="1030" on="1"/>
        <pt x="1115" y="810" on="0"/>
        <pt x="832" y="555" on="0"/>
        <pt x="585" y="555" on="1"/>
        <pt x="530" y="555" on="0"/>
        <pt x="414" y="560" on="0"/>
      </contour>
      <contour>
        <pt x="365" y="1305" on="1"/>
        <pt x="365" y="720" on="1"/>
        <pt x="412" y="714" on="0"/>
        <pt x="514" y="710" on="0"/>
        <pt x="570" y="710" on="1"/>
        <pt x="710" y="710" on="0"/>
        <pt x="864" y="793" on="0"/>
        <pt x="925" y="930" on="0"/>
        <pt x="925" y="1010" on="1"/>
        <pt x="925" y="1090" on="0"/>
        <pt x="861" y="1227" on="0"/>
        <pt x="708" y="1310" on="0"/>
        <pt x="575" y="1310" on="1"/>
        <pt x="505" y="1310" on="0"/>
        <pt x="416" y="1307" on="0"/>
      </contour>
    </TTGlyph>
    <TTGlyph name="LtnCapQ" xMin="95" yMin="-190" xMax="1455" yMax="1485">
      <contour>
        <pt x="1340" y="740" on="1"/>
        <pt x="1340" y="544" on="0"/>
        <pt x="1212" y="203" on="0"/>
        <pt x="1080" y="105" on="1"/>
        <pt x="1174" y="47" on="0"/>
        <pt x="1355" y="-32" on="0"/>
        <pt x="1455" y="-45" on="1"/>
        <pt x="1443" y="-63" on="0"/>
        <pt x="1400" y="-132" on="0"/>
        <pt x="1347" y="-190" on="0"/>
        <pt x="1320" y="-190" on="1"/>
        <pt x="1295" y="-190" on="0"/>
        <pt x="1203" y="-152" on="0"/>
        <pt x="1092" y="-95" on="0"/>
        <pt x="982" y="-38" on="0"/>
        <pt x="896" y="0" on="0"/>
        <pt x="875" y="0" on="1"/>
        <pt x="796" y="-25" on="0"/>
        <pt x="705" y="-25" on="1"/>
        <pt x="544" y="-25" on="0"/>
        <pt x="266" y="148" on="0"/>
        <pt x="95" y="481" on="0"/>
        <pt x="95" y="720" on="1"/>
        <pt x="95" y="900" on="0"/>
        <pt x="201" y="1183" on="0"/>
        <pt x="382" y="1381" on="0"/>
        <pt x="609" y="1485" on="0"/>
        <pt x="730" y="1485" on="1"/>
        <pt x="892" y="1485" on="0"/>
        <pt x="1170" y="1312" on="0"/>
        <pt x="1340" y="980" on="0"/>
      </contour>
      <contour>
        <pt x="1145" y="715" on="1"/>
        <pt x="1145" y="900" on="0"/>
        <pt x="1038" y="1166" on="0"/>
        <pt x="847" y="1310" on="0"/>
        <pt x="720" y="1310" on="1"/>
        <pt x="594" y="1310" on="0"/>
        <pt x="400" y="1172" on="0"/>
        <pt x="290" y="918" on="0"/>
        <pt x="290" y="745" on="1"/>
        <pt x="290" y="563" on="0"/>
        <pt x="397" y="295" on="0"/>
        <pt x="590" y="150" on="0"/>
        <pt x="720" y="150" on="1"/>
        <pt x="843" y="150" on="0"/>
        <pt x="1035" y="285" on="0"/>
        <pt x="1145" y="538" on="0"/>
      </contour>
    </TTGlyph>
    <TTGlyph name="LtnCapR" xMin="160" yMin="0" xMax="1245" yMax="1470">
      <contour>
        <pt x="365" y="625" on="1"/>
        <pt x="365" y="435" on="1"/>
        <pt x="365" y="287" on="0"/>
        <pt x="370" y="59" on="0"/>
        <pt x="380" y="0" on="1"/>
        <pt x="160" y="0" on="1"/>
        <pt x="171" y="60" on="0"/>
        <pt x="175" y="287" on="0"/>
        <pt x="175" y="435" on="1"/>
        <pt x="175" y="1000" on="1"/>
        <pt x="175" y="1147" on="0"/>
        <pt x="171" y="1400" on="0"/>
        <pt x="160" y="1460" on="1"/>
        <pt x="160" y="1460" on="0"/>
        <pt x="390" y="1470" on="0"/>
        <pt x="565" y="1470" on="1"/>
        <pt x="721" y="1470" on="0"/>
        <pt x="957" y="1385" on="0"/>
        <pt x="1090" y="1205" on="0"/>
        <pt x="1090" y="1060" on="1"/>
        <pt x="1090" y="941" on="0"/>
        <pt x="997" y="775" on="0"/>
        <pt x="852" y="672" on="0"/>
        <pt x="689" y="625" on="0"/>
        <pt x="620" y="625" on="1"/>
      </contour>
      <contour>
        <pt x="365" y="1305" on="1"/>
        <pt x="365" y="780" on="1"/>
        <pt x="555" y="780" on="1"/>
        <pt x="724" y="780" on="0"/>
        <pt x="900" y="921" on="0"/>
        <pt x="900" y="1045" on="1"/>
        <pt x="900" y="1173" on="0"/>
        <pt x="739" y="1310" on="0"/>
        <pt x="555" y="1310" on="1"/>
        <pt x="503" y="1310" on="0"/>
        <pt x="405" y="1307" on="0"/>
      </contour>
      <contour>
        <pt x="561" y="635" on="1"/>
        <pt x="715" y="710" on="1"/>
        <pt x="715" y="710" on="0"/>
        <pt x="783" y="617" on="0"/>
        <pt x="892" y="468" on="0"/>
        <pt x="1018" y="297" on="0"/>
        <pt x="1138" y="135" on="0"/>
        <pt x="1228" y="18" on="0"/>
        <pt x="1245" y="0" on="1"/>
        <pt x="990" y="0" on="1"/>
      </contour>
    </TTGlyph>
    <TTGlyph name="LtnCapS" xMin="95" yMin="-25" xMax="1065" yMax="1485">
      <contour>
        <pt x="1000" y="1395" on="1"/>
        <pt x="960" y="1200" on="1"/>
        <pt x="853" y="1259" on="0"/>
        <pt x="691" y="1310" on="0"/>
        <pt x="595" y="1310" on="1"/>
        <pt x="515" y="1310" on="0"/>
        <pt x="393" y="1248" on="0"/>
        <pt x="325" y="1150" on="0"/>
        <pt x="325" y="1095" on="1"/>
        <pt x="325" y="1040" on="0"/>
        <pt x="371" y="956" on="0"/>
        <pt x="513" y="882" on="0"/>
        <pt x="655" y="840" on="1"/>
        <pt x="854" y="782" on="0"/>
        <pt x="1065" y="587" on="0"/>
        <pt x="1065" y="425" on="1"/>
        <pt x="1065" y="291" on="0"/>
        <pt x="929" y="88" on="0"/>
        <pt x="702" y="-25" on="0"/>
        <pt x="565" y="-25" on="1"/>
        <pt x="420" y="-25" on="0"/>
        <pt x="172" y="51" on="0"/>
        <pt x="95" y="110" on="1"/>
        <pt x="140" y="315" on="1"/>
        <pt x="239" y="229" on="0"/>
        <pt x="454" y="150" on="0"/>
        <pt x="565" y="150" on="1"/>
        <pt x="646" y="150" on="0"/>
        <pt x="787" y="210" on="0"/>
        <pt x="875" y="324" on="0"/>
        <pt x="875" y="405" on="1"/>
        <pt x="875" y="458" on="0"/>
        <pt x="825" y="550" on="0"/>
        <pt x="671" y="638" on="0"/>
        <pt x="515" y="685" on="1"/>
        <pt x="359" y="732" on="0"/>
        <pt x="195" y="850" on="0"/>
        <pt x="135" y="995" on="0"/>
        <pt x="135" y="1080" on="1"/>
        <pt x="135" y="1144" on="0"/>
        <pt x="189" y="1285" on="0"/>
        <pt x="302" y="1408" on="0"/>
        <pt x="481" y="1485" on="0"/>
        <pt x="605" y="1485" on="1"/>
        <pt x="721" y="1485" on="0"/>
        <pt x="903" y="1442" on="0"/>
      </contour>
    </TTGlyph>
    <TTGlyph name="LtnCapT" xMin="45" yMin="0" xMax="1200" yMax="1460">
      <contour>
        <pt x="45" y="1460" on="1"/>
        <pt x="1200" y="1460" on="1"/>
        <pt x="1200" y="1275" on="1"/>
        <pt x="1140" y="1288" on="0"/>
        <pt x="1023" y="1295" on="0"/>
        <pt x="955" y="1295" on="1"/>
        <pt x="715" y="1295" on="1"/>
        <pt x="715" y="435" on="1"/>
        <pt x="715" y="287" on="0"/>
        <pt x="722" y="60" on="0"/>
        <pt x="735" y="0" on="1"/>
        <pt x="505" y="0" on="1"/>
        <pt x="518" y="60" on="0"/>
        <pt x="525" y="287" on="0"/>
        <pt x="525" y="435" on="1"/>
        <pt x="525" y="1295" on="1"/>
        <pt x="290" y="1295" on="1"/>
        <pt x="223" y="1295" on="0"/>
        <pt x="105" y="1288" on="0"/>
        <pt x="45" y="1275" on="1"/>
      </contour>
    </TTGlyph>
    <TTGlyph name="LtnCapU" xMin="160" yMin="-25" xMax="1255" yMax="1460">
      <contour>
        <pt x="1050" y="1460" on="1"/>
        <pt x="1255" y="1460" on="1"/>
        <pt x="1245" y="1400" on="0"/>
        <pt x="1240" y="1180" on="0"/>
        <pt x="1240" y="1025" on="1"/>
        <pt x="1240" y="515" on="1"/>
        <pt x="1240" y="271" on="0"/>
        <pt x="981" y="-25" on="0"/>
        <pt x="710" y="-25" on="1"/>
        <pt x="436" y="-25" on="0"/>
        <pt x="175" y="271" on="0"/>
        <pt x="175" y="515" on="1"/>
        <pt x="175" y="1025" on="1"/>
        <pt x="175" y="1173" on="0"/>
        <pt x="171" y="1400" on="0"/>
        <pt x="160" y="1460" on="1"/>
        <pt x="365" y="1460" on="1"/>
        <pt x="365" y="560" on="1"/>
        <pt x="365" y="430" on="0"/>
        <pt x="428" y="239" on="0"/>
        <pt x="579" y="135" on="0"/>
        <pt x="710" y="135" on="1"/>
        <pt x="839" y="135" on="0"/>
        <pt x="987" y="239" on="0"/>
        <pt x="1050" y="430" on="0"/>
        <pt x="1050" y="560" on="1"/>
      </contour>
    </TTGlyph>
    <TTGlyph name="LtnCapV" xMin="35" yMin="0" xMax="1310" yMax="1460">
      <contour>
        <pt x="1095" y="1460" on="1"/>
        <pt x="1310" y="1460" on="1"/>
        <pt x="1283" y="1399" on="0"/>
        <pt x="1221" y="1241" on="0"/>
        <pt x="1170" y="1095" on="1"/>
        <pt x="785" y="0" on="1"/>
        <pt x="560" y="0" on="1"/>
        <pt x="170" y="1095" on="1"/>
        <pt x="118" y="1240" on="0"/>
        <pt x="60" y="1399" on="0"/>
        <pt x="35" y="1460" on="1"/>
        <pt x="250" y="1460" on="1"/>
        <pt x="672" y="195" on="1"/>
      </contour>
    </TTGlyph>
    <TTGlyph name="LtnCapW" xMin="40" yMin="0" xMax="2015" yMax="1460">
      <contour>
        <pt x="1480" y="0" on="1"/>
        <pt x="1470" y="130" on="1"/>
        <pt x="1795" y="1460" on="1"/>
        <pt x="2015" y="1460" on="1"/>
        <pt x="1991" y="1399" on="0"/>
        <pt x="1941" y="1241" on="0"/>
        <pt x="1900" y="1095" on="1"/>
        <pt x="1595" y="0" on="1"/>
      </contour>
      <contour>
        <pt x="1120" y="1460" on="1"/>
        <pt x="1500" y="130" on="1"/>
        <pt x="1480" y="0" on="1"/>
        <pt x="1370" y="0" on="1"/>
        <pt x="990" y="1305" on="1"/>
        <pt x="935" y="1460" on="1"/>
      </contour>
      <contour>
        <pt x="580" y="0" on="1"/>
        <pt x="560" y="130" on="1"/>
        <pt x="935" y="1460" on="1"/>
        <pt x="1120" y="1460" on="1"/>
        <pt x="1065" y="1305" on="1"/>
        <pt x="685" y="0" on="1"/>
      </contour>
      <contour>
        <pt x="260" y="1460" on="1"/>
        <pt x="590" y="130" on="1"/>
        <pt x="580" y="0" on="1"/>
        <pt x="460" y="0" on="1"/>
        <pt x="155" y="1095" on="1"/>
        <pt x="115" y="1238" on="0"/>
        <pt x="63" y="1401" on="0"/>
        <pt x="40" y="1460" on="1"/>
      </contour>
    </TTGlyph>
    <TTGlyph name="LtnCapX" xMin="40" yMin="0" xMax="1260" yMax="1460">
      <contour>
        <pt x="537" y="781" on="1"/>
        <pt x="330" y="1110" on="1"/>
        <pt x="266" y="1213" on="0"/>
        <pt x="183" y="1335" on="0"/>
        <pt x="122" y="1418" on="0"/>
        <pt x="90" y="1460" on="1"/>
        <pt x="325" y="1460" on="1"/>
        <pt x="656" y="934" on="1"/>
        <pt x="975" y="1460" on="1"/>
        <pt x="1210" y="1460" on="1"/>
        <pt x="1179" y="1422" on="0"/>
        <pt x="1117" y="1337" on="0"/>
        <pt x="1035" y="1212" on="0"/>
        <pt x="972" y="1110" on="1"/>
        <pt x="761" y="767" on="1"/>
        <pt x="1033" y="336" on="1"/>
        <pt x="1099" y="231" on="0"/>
        <pt x="1176" y="115" on="0"/>
        <pt x="1230" y="41" on="0"/>
        <pt x="1260" y="0" on="1"/>
        <pt x="1030" y="0" on="1"/>
        <pt x="642" y="614" on="1"/>
        <pt x="270" y="0" on="1"/>
        <pt x="40" y="0" on="1"/>
        <pt x="72" y="43" on="0"/>
        <pt x="125" y="119" on="0"/>
        <pt x="201" y="236" on="0"/>
        <pt x="265" y="340" on="1"/>
      </contour>
    </TTGlyph>
    <TTGlyph name="LtnCapY" xMin="35" yMin="0" xMax="1265" yMax="1460">
      <contour>
        <pt x="35" y="1460" on="1"/>
        <pt x="265" y="1460" on="1"/>
        <pt x="660" y="799" on="1"/>
        <pt x="1035" y="1460" on="1"/>
        <pt x="1265" y="1460" on="1"/>
        <pt x="1206" y="1376" on="0"/>
        <pt x="1123" y="1246" on="0"/>
        <pt x="1053" y="1130" on="0"/>
        <pt x="1015" y="1065" on="1"/>
        <pt x="745" y="603" on="1"/>
        <pt x="745" y="435" on="1"/>
        <pt x="745" y="287" on="0"/>
        <pt x="749" y="60" on="0"/>
        <pt x="760" y="0" on="1"/>
        <pt x="540" y="0" on="1"/>
        <pt x="551" y="60" on="0"/>
        <pt x="555" y="287" on="0"/>
        <pt x="555" y="435" on="1"/>
        <pt x="555" y="611" on="1"/>
        <pt x="290" y="1065" on="1"/>
        <pt x="232" y="1164" on="0"/>
        <pt x="119" y="1348" on="0"/>
      </contour>
    </TTGlyph>
    <TTGlyph name="LtnSmA" xMin="95" yMin="-25" xMax="1025" yMax="1040">
      <contour>
        <pt x="950" y="760" on="1"/>
        <pt x="950" y="370" on="1"/>
        <pt x="950" y="262" on="0"/>
        <pt x="992" y="84" on="0"/>
        <pt x="1025" y="0" on="1"/>
        <pt x="845" y="0" on="1"/>
        <pt x="836" y="24" on="0"/>
        <pt x="806" y="107" on="0"/>
        <pt x="795" y="155" on="1"/>
        <pt x="707" y="61" on="0"/>
        <pt x="513" y="-25" on="0"/>
        <pt x="420" y="-25" on="1"/>
        <pt x="326" y="-25" on="0"/>
        <pt x="179" y="53" on="0"/>
        <pt x="95" y="181" on="0"/>
        <pt x="95" y="255" on="1"/>
        <pt x="95" y="331" on="0"/>
        <pt x="166" y="483" on="0"/>
        <pt x="341" y="595" on="0"/>
        <pt x="495" y="610" on="1"/>
        <pt x="530" y="614" on="0"/>
        <pt x="642" y="624" on="0"/>
        <pt x="745" y="634" on="0"/>
        <pt x="765" y="635" on="1"/>
        <pt x="765" y="710" on="1"/>
        <pt x="765" y="801" on="0"/>
        <pt x="638" y="880" on="0"/>
        <pt x="525" y="880" on="1"/>
        <pt x="446" y="880" on="0"/>
        <pt x="287" y="817" on="0"/>
        <pt x="199" y="755" on="1"/>
        <pt x="200" y="777" on="0"/>
        <pt x="202" y="853" on="0"/>
        <pt x="206" y="929" on="0"/>
        <pt x="209" y="950" on="1"/>
        <pt x="286" y="983" on="0"/>
        <pt x="456" y="1040" on="0"/>
        <pt x="570" y="1040" on="1"/>
        <pt x="743" y="1040" on="0"/>
        <pt x="950" y="879" on="0"/>
      </contour>
      <contour>
        <pt x="765" y="325" on="1"/>
        <pt x="765" y="495" on="1"/>
        <pt x="740" y="494" on="0"/>
        <pt x="640" y="485" on="0"/>
        <pt x="537" y="474" on="0"/>
        <pt x="505" y="470" on="1"/>
        <pt x="378" y="455" on="0"/>
        <pt x="275" y="349" on="0"/>
        <pt x="275" y="280" on="1"/>
        <pt x="275" y="213" on="0"/>
        <pt x="368" y="140" on="0"/>
        <pt x="450" y="140" on="1"/>
        <pt x="501" y="140" on="0"/>
        <pt x="600" y="165" on="0"/>
        <pt x="705" y="244" on="0"/>
      </contour>
    </TTGlyph>
    <TTGlyph name="LtnSmAAcute" xMin="95" yMin="-25" xMax="1025" yMax="1600">
      <component glyphName="LtnSmA" x="0" y="0" flags="0x204"/>
      <component glyphName="CombAcute" x="1110" y="0" flags="0x4"/>
    </TTGlyph>
    <TTGlyph name="LtnSmACircum" xMin="95" yMin="-25" xMax="1025" yMax="1600">
      <component glyphName="LtnSmA" x="0" y="0" flags="0x204"/>
      <component glyphName="CombCircum" x="1110" y="0" flags="0x4"/>
    </TTGlyph>
    <TTGlyph name="LtnSmADiaer" xMin="95" yMin="-25" xMax="1025" yMax="1480">
      <component glyphName="LtnSmA" x="0" y="0" flags="0x204"/>
      <component glyphName="CombDiaer" x="1110" y="0" flags="0x4"/>
    </TTGlyph>
    <TTGlyph name="LtnSmAGrave" xMin="95" yMin="-25" xMax="1025" yMax="1600">
      <component glyphName="LtnSmA" x="0" y="0" flags="0x204"/>
      <component glyphName="CombGrave" x="1090" y="0" flags="0x4"/>
    </TTGlyph>
    <TTGlyph name="LtnSmARingAbv" xMin="95" yMin="-25" xMax="1025" yMax="1600">
      <contour>
        <pt x="642" y="1385" on="1"/>
        <pt x="642" y="1430" on="0"/>
        <pt x="587" y="1485" on="0"/>
        <pt x="542" y="1485" on="1"/>
        <pt x="497" y="1485" on="0"/>
        <pt x="442" y="1430" on="0"/>
        <pt x="442" y="1385" on="1"/>
        <pt x="442" y="1340" on="0"/>
        <pt x="497" y="1285" on="0"/>
        <pt x="542" y="1285" on="1"/>
        <pt x="587" y="1285" on="0"/>
        <pt x="642" y="1340" on="0"/>
      </contour>
      <contour>
        <pt x="327" y="1385" on="1"/>
        <pt x="327" y="1475" on="0"/>
        <pt x="452" y="1600" on="0"/>
        <pt x="542" y="1600" on="1"/>
        <pt x="632" y="1600" on="0"/>
        <pt x="757" y="1475" on="0"/>
        <pt x="757" y="1385" on="1"/>
        <pt x="757" y="1295" on="0"/>
        <pt x="632" y="1170" on="0"/>
        <pt x="542" y="1170" on="1"/>
        <pt x="452" y="1170" on="0"/>
        <pt x="327" y="1295" on="0"/>
      </contour>
      <contour>
        <pt x="950" y="760" on="1"/>
        <pt x="950" y="370" on="1"/>
        <pt x="950" y="262" on="0"/>
        <pt x="992" y="84" on="0"/>
        <pt x="1025" y="0" on="1"/>
        <pt x="845" y="0" on="1"/>
        <pt x="836" y="24" on="0"/>
        <pt x="806" y="107" on="0"/>
        <pt x="795" y="155" on="1"/>
        <pt x="707" y="61" on="0"/>
        <pt x="513" y="-25" on="0"/>
        <pt x="420" y="-25" on="1"/>
        <pt x="326" y="-25" on="0"/>
        <pt x="179" y="53" on="0"/>
        <pt x="95" y="181" on="0"/>
        <pt x="95" y="255" on="1"/>
        <pt x="95" y="331" on="0"/>
        <pt x="166" y="483" on="0"/>
        <pt x="341" y="595" on="0"/>
        <pt x="495" y="610" on="1"/>
        <pt x="530" y="614" on="0"/>
        <pt x="642" y="624" on="0"/>
        <pt x="745" y="634" on="0"/>
        <pt x="765" y="635" on="1"/>
        <pt x="765" y="710" on="1"/>
        <pt x="765" y="801" on="0"/>
        <pt x="638" y="880" on="0"/>
        <pt x="525" y="880" on="1"/>
        <pt x="446" y="880" on="0"/>
        <pt x="287" y="817" on="0"/>
        <pt x="199" y="755" on="1"/>
        <pt x="200" y="777" on="0"/>
        <pt x="202" y="853" on="0"/>
        <pt x="206" y="929" on="0"/>
        <pt x="209" y="950" on="1"/>
        <pt x="286" y="983" on="0"/>
        <pt x="456" y="1040" on="0"/>
        <pt x="570" y="1040" on="1"/>
        <pt x="743" y="1040" on="0"/>
        <pt x="950" y="879" on="0"/>
      </contour>
      <contour>
        <pt x="765" y="325" on="1"/>
        <pt x="765" y="495" on="1"/>
        <pt x="740" y="494" on="0"/>
        <pt x="640" y="485" on="0"/>
        <pt x="537" y="474" on="0"/>
        <pt x="505" y="470" on="1"/>
        <pt x="378" y="455" on="0"/>
        <pt x="275" y="349" on="0"/>
        <pt x="275" y="280" on="1"/>
        <pt x="275" y="213" on="0"/>
        <pt x="368" y="140" on="0"/>
        <pt x="450" y="140" on="1"/>
        <pt x="501" y="140" on="0"/>
        <pt x="600" y="165" on="0"/>
        <pt x="705" y="244" on="0"/>
      </contour>
    </TTGlyph>
    <TTGlyph name="LtnSmATilde" xMin="95" yMin="-25" xMax="1025" yMax="1455">
      <contour>
        <pt x="295" y="1205" on="1"/>
        <pt x="190" y="1205" on="1"/>
        <pt x="190" y="1266" on="0"/>
        <pt x="236" y="1381" on="0"/>
        <pt x="323" y="1455" on="0"/>
        <pt x="382" y="1455" on="1"/>
        <pt x="424" y="1455" on="0"/>
        <pt x="503" y="1424" on="0"/>
        <pt x="555" y="1403" on="1"/>
        <pt x="609" y="1381" on="0"/>
        <pt x="679" y="1355" on="0"/>
        <pt x="710" y="1355" on="1"/>
        <pt x="745" y="1355" on="0"/>
        <pt x="790" y="1406" on="0"/>
        <pt x="795" y="1440" on="1"/>
        <pt x="900" y="1440" on="1"/>
        <pt x="900" y="1376" on="0"/>
        <pt x="852" y="1262" on="0"/>
        <pt x="764" y="1190" on="0"/>
        <pt x="702" y="1190" on="1"/>
        <pt x="662" y="1190" on="0"/>
        <pt x="581" y="1217" on="0"/>
        <pt x="535" y="1238" on="1"/>
        <pt x="477" y="1265" on="0"/>
        <pt x="408" y="1290" on="0"/>
        <pt x="380" y="1290" on="1"/>
        <pt x="343" y="1290" on="0"/>
        <pt x="299" y="1242" on="0"/>
      </contour>
      <contour>
        <pt x="950" y="760" on="1"/>
        <pt x="950" y="370" on="1"/>
        <pt x="950" y="262" on="0"/>
        <pt x="992" y="84" on="0"/>
        <pt x="1025" y="0" on="1"/>
        <pt x="845" y="0" on="1"/>
        <pt x="836" y="24" on="0"/>
        <pt x="806" y="107" on="0"/>
        <pt x="795" y="155" on="1"/>
        <pt x="707" y="61" on="0"/>
        <pt x="513" y="-25" on="0"/>
        <pt x="420" y="-25" on="1"/>
        <pt x="326" y="-25" on="0"/>
        <pt x="179" y="53" on="0"/>
        <pt x="95" y="181" on="0"/>
        <pt x="95" y="255" on="1"/>
        <pt x="95" y="331" on="0"/>
        <pt x="166" y="483" on="0"/>
        <pt x="341" y="595" on="0"/>
        <pt x="495" y="610" on="1"/>
        <pt x="530" y="614" on="0"/>
        <pt x="642" y="624" on="0"/>
        <pt x="745" y="634" on="0"/>
        <pt x="765" y="635" on="1"/>
        <pt x="765" y="710" on="1"/>
        <pt x="765" y="801" on="0"/>
        <pt x="638" y="880" on="0"/>
        <pt x="525" y="880" on="1"/>
        <pt x="446" y="880" on="0"/>
        <pt x="287" y="817" on="0"/>
        <pt x="199" y="755" on="1"/>
        <pt x="200" y="777" on="0"/>
        <pt x="202" y="853" on="0"/>
        <pt x="206" y="929" on="0"/>
        <pt x="209" y="950" on="1"/>
        <pt x="286" y="983" on="0"/>
        <pt x="456" y="1040" on="0"/>
        <pt x="570" y="1040" on="1"/>
        <pt x="743" y="1040" on="0"/>
        <pt x="950" y="879" on="0"/>
      </contour>
      <contour>
        <pt x="765" y="325" on="1"/>
        <pt x="765" y="495" on="1"/>
        <pt x="740" y="494" on="0"/>
        <pt x="640" y="485" on="0"/>
        <pt x="537" y="474" on="0"/>
        <pt x="505" y="470" on="1"/>
        <pt x="378" y="455" on="0"/>
        <pt x="275" y="349" on="0"/>
        <pt x="275" y="280" on="1"/>
        <pt x="275" y="213" on="0"/>
        <pt x="368" y="140" on="0"/>
        <pt x="450" y="140" on="1"/>
        <pt x="501" y="140" on="0"/>
        <pt x="600" y="165" on="0"/>
        <pt x="705" y="244" on="0"/>
      </contour>
    </TTGlyph>
    <TTGlyph name="LtnSmB" xMin="130" yMin="-25" xMax="1060" yMax="1600">
      <contour>
        <pt x="130" y="1600" on="1"/>
        <pt x="330" y="1600" on="1"/>
        <pt x="330" y="1600" on="0"/>
        <pt x="330" y="1500" on="0"/>
        <pt x="330" y="1340" on="0"/>
        <pt x="330" y="1154" on="0"/>
        <pt x="330" y="978" on="0"/>
        <pt x="330" y="848" on="0"/>
        <pt x="330" y="825" on="1"/>
        <pt x="400" y="917" on="0"/>
        <pt x="589" y="1040" on="0"/>
        <pt x="715" y="1040" on="1"/>
        <pt x="816" y="1040" on="0"/>
        <pt x="972" y="912" on="0"/>
        <pt x="1060" y="686" on="0"/>
        <pt x="1060" y="540" on="1"/>
        <pt x="1060" y="369" on="0"/>
        <pt x="940" y="115" on="0"/>
        <pt x="723" y="-25" on="0"/>
        <pt x="575" y="-25" on="1"/>
        <pt x="454" y="-25" on="0"/>
        <pt x="240" y="36" on="0"/>
        <pt x="145" y="65" on="1"/>
        <pt x="145" y="106" on="0"/>
        <pt x="145" y="266" on="0"/>
        <pt x="145" y="474" on="0"/>
        <pt x="145" y="698" on="0"/>
        <pt x="145" y="911" on="0"/>
        <pt x="145" y="1082" on="0"/>
        <pt x="145" y="1130" on="1"/>
        <pt x="145" y="1202" on="0"/>
        <pt x="144" y="1378" on="0"/>
        <pt x="138" y="1544" on="0"/>
      </contour>
      <contour>
        <pt x="330" y="585" on="1"/>
        <pt x="330" y="185" on="1"/>
        <pt x="404" y="154" on="0"/>
        <pt x="511" y="130" on="0"/>
        <pt x="575" y="130" on="1"/>
        <pt x="708" y="130" on="0"/>
        <pt x="880" y="336" on="0"/>
        <pt x="880" y="505" on="1"/>
        <pt x="880" y="672" on="0"/>
        <pt x="763" y="865" on="0"/>
        <pt x="655" y="865" on="1"/>
        <pt x="562" y="865" on="0"/>
        <pt x="381" y="710" on="0"/>
      </contour>
    </TTGlyph>
    <TTGlyph name="LtnSmC" xMin="95" yMin="-25" xMax="925" yMax="1040">
      <contour>
        <pt x="905" y="260" on="1"/>
        <pt x="925" y="85" on="1"/>
        <pt x="849" y="28" on="0"/>
        <pt x="693" y="-25" on="0"/>
        <pt x="580" y="-25" on="1"/>
        <pt x="446" y="-25" on="0"/>
        <pt x="226" y="100" on="0"/>
        <pt x="95" y="331" on="0"/>
        <pt x="95" y="490" on="1"/>
        <pt x="95" y="641" on="0"/>
        <pt x="222" y="891" on="0"/>
        <pt x="456" y="1040" on="0"/>
        <pt x="615" y="1040" on="1"/>
        <pt x="715" y="1040" on="0"/>
        <pt x="860" y="993" on="0"/>
        <pt x="915" y="955" on="1"/>
        <pt x="880" y="775" on="1"/>
        <pt x="813" y="825" on="0"/>
        <pt x="677" y="875" on="0"/>
        <pt x="600" y="875" on="1"/>
        <pt x="467" y="875" on="0"/>
        <pt x="285" y="677" on="0"/>
        <pt x="285" y="500" on="1"/>
        <pt x="285" y="339" on="0"/>
        <pt x="455" y="140" on="0"/>
        <pt x="600" y="140" on="1"/>
        <pt x="690" y="140" on="0"/>
        <pt x="840" y="202" on="0"/>
      </contour>
    </TTGlyph>
    <TTGlyph name="LtnSmD" xMin="105" yMin="-25" xMax="1105" yMax="1600">
      <contour>
        <pt x="1030" y="1600" on="1"/>
        <pt x="1030" y="530" on="1"/>
        <pt x="1030" y="341" on="0"/>
        <pt x="1073" y="84" on="0"/>
        <pt x="1105" y="0" on="1"/>
        <pt x="925" y="0" on="1"/>
        <pt x="914" y="26" on="0"/>
        <pt x="883" y="130" on="0"/>
        <pt x="870" y="185" on="1"/>
        <pt x="799" y="84" on="0"/>
        <pt x="615" y="-25" on="0"/>
        <pt x="505" y="-25" on="1"/>
        <pt x="383" y="-25" on="0"/>
        <pt x="203" y="95" on="0"/>
        <pt x="105" y="314" on="0"/>
        <pt x="105" y="460" on="1"/>
        <pt x="105" y="637" on="0"/>
        <pt x="231" y="897" on="0"/>
        <pt x="446" y="1040" on="0"/>
        <pt x="580" y="1040" on="1"/>
        <pt x="644" y="1040" on="0"/>
        <pt x="787" y="988" on="0"/>
        <pt x="845" y="955" on="1"/>
        <pt x="845" y="1235" on="1"/>
        <pt x="845" y="1355" on="0"/>
        <pt x="834" y="1537" on="0"/>
        <pt x="820" y="1600" on="1"/>
      </contour>
      <contour>
        <pt x="845" y="400" on="1"/>
        <pt x="845" y="795" on="1"/>
        <pt x="771" y="835" on="0"/>
        <pt x="656" y="870" on="0"/>
        <pt x="580" y="870" on="1"/>
        <pt x="504" y="870" on="0"/>
        <pt x="372" y="779" on="0"/>
        <pt x="290" y="609" on="0"/>
        <pt x="290" y="490" on="1"/>
        <pt x="290" y="316" on="0"/>
        <pt x="410" y="135" on="0"/>
        <pt x="540" y="135" on="1"/>
        <pt x="601" y="135" on="0"/>
        <pt x="720" y="212" on="0"/>
        <pt x="818" y="334" on="0"/>
      </contour>
    </TTGlyph>
    <TTGlyph name="LtnSmE" xMin="95" yMin="-25" xMax="995" yMax="1040">
      <contour>
        <pt x="989" y="485" on="1"/>
        <pt x="245" y="485" on="1"/>
        <pt x="245" y="625" on="1"/>
        <pt x="810" y="625" on="1"/>
        <pt x="810" y="754" on="0"/>
        <pt x="669" y="890" on="0"/>
        <pt x="560" y="890" on="1"/>
        <pt x="429" y="890" on="0"/>
        <pt x="280" y="704" on="0"/>
        <pt x="280" y="505" on="1"/>
        <pt x="280" y="320" on="0"/>
        <pt x="461" y="140" on="0"/>
        <pt x="600" y="140" on="1"/>
        <pt x="697" y="140" on="0"/>
        <pt x="884" y="185" on="0"/>
        <pt x="975" y="240" on="1"/>
        <pt x="995" y="75" on="1"/>
        <pt x="889" y="20" on="0"/>
        <pt x="691" y="-25" on="0"/>
        <pt x="575" y="-25" on="1"/>
        <pt x="448" y="-25" on="0"/>
        <pt x="229" y="93" on="0"/>
        <pt x="95" y="325" on="0"/>
        <pt x="95" y="495" on="1"/>
        <pt x="95" y="661" on="0"/>
        <pt x="212" y="905" on="0"/>
        <pt x="427" y="1040" on="0"/>
        <pt x="575" y="1040" on="1"/>
        <pt x="699" y="1040" on="0"/>
        <pt x="860" y="956" on="0"/>
        <pt x="952" y="816" on="0"/>
        <pt x="990" y="647" on="0"/>
        <pt x="990" y="563" on="1"/>
        <pt x="990" y="550" on="0"/>
        <pt x="990" y="499" on="0"/>
      </contour>
    </TTGlyph>
    <TTGlyph name="LtnSmF" xMin="40" yMin="0" xMax="805" yMax="1620">
      <contour>
        <pt x="40" y="850" on="1"/>
        <pt x="40" y="995" on="1"/>
        <pt x="240" y="995" on="1"/>
        <pt x="240" y="1170" on="1"/>
        <pt x="240" y="1395" on="0"/>
        <pt x="423" y="1620" on="0"/>
        <pt x="585" y="1620" on="1"/>
        <pt x="706" y="1620" on="0"/>
        <pt x="805" y="1550" on="1"/>
        <pt x="760" y="1390" on="1"/>
        <pt x="679" y="1450" on="0"/>
        <pt x="585" y="1450" on="1"/>
        <pt x="507" y="1450" on="0"/>
        <pt x="425" y="1338" on="0"/>
        <pt x="425" y="1210" on="1"/>
        <pt x="425" y="995" on="1"/>
        <pt x="695" y="995" on="1"/>
        <pt x="695" y="850" on="1"/>
        <pt x="425" y="850" on="1"/>
        <pt x="425" y="494" on="1"/>
        <pt x="425" y="349" on="0"/>
        <pt x="439" y="79" on="0"/>
        <pt x="455" y="0" on="1"/>
        <pt x="240" y="0" on="1"/>
        <pt x="240" y="850" on="1"/>
      </contour>
    </TTGlyph>
    <TTGlyph name="LtnSmG" xMin="30" yMin="-505" xMax="1065" yMax="1040">
      <contour>
        <pt x="330" y="395" on="1"/>
        <pt x="500" y="350" on="1"/>
        <pt x="413" y="325" on="0"/>
        <pt x="345" y="262" on="0"/>
        <pt x="345" y="235" on="1"/>
        <pt x="345" y="217" on="0"/>
        <pt x="399" y="178" on="0"/>
        <pt x="540" y="141" on="0"/>
        <pt x="670" y="125" on="1"/>
        <pt x="893" y="99" on="0"/>
        <pt x="1065" y="-46" on="0"/>
        <pt x="1065" y="-160" on="1"/>
        <pt x="1065" y="-241" on="0"/>
        <pt x="969" y="-368" on="0"/>
        <pt x="812" y="-458" on="0"/>
        <pt x="626" y="-505" on="0"/>
        <pt x="535" y="-505" on="1"/>
        <pt x="448" y="-505" on="0"/>
        <pt x="270" y="-468" on="0"/>
        <pt x="121" y="-393" on="0"/>
        <pt x="30" y="-278" on="0"/>
        <pt x="30" y="-200" on="1"/>
        <pt x="30" y="-32" on="0"/>
        <pt x="290" y="75" on="1"/>
        <pt x="290" y="75" on="0"/>
        <pt x="341" y="66" on="0"/>
        <pt x="409" y="51" on="0"/>
        <pt x="463" y="31" on="0"/>
        <pt x="465" y="20" on="1"/>
        <pt x="355" y="-18" on="0"/>
        <pt x="248" y="-87" on="0"/>
        <pt x="215" y="-150" on="0"/>
        <pt x="215" y="-180" on="1"/>
        <pt x="215" y="-220" on="0"/>
        <pt x="288" y="-304" on="0"/>
        <pt x="437" y="-360" on="0"/>
        <pt x="550" y="-360" on="1"/>
        <pt x="641" y="-360" on="0"/>
        <pt x="790" y="-300" on="0"/>
        <pt x="880" y="-212" on="0"/>
        <pt x="880" y="-170" on="1"/>
        <pt x="880" y="-110" on="0"/>
        <pt x="740" y="-27" on="0"/>
        <pt x="545" y="-5" on="1"/>
        <pt x="404" y="11" on="0"/>
        <pt x="245" y="79" on="0"/>
        <pt x="180" y="168" on="0"/>
        <pt x="180" y="215" on="1"/>
        <pt x="180" y="260" on="0"/>
        <pt x="258" y="367" on="0"/>
      </contour>
      <contour>
        <pt x="1050" y="1040" on="1"/>
        <pt x="1040" y="880" on="1"/>
        <pt x="985" y="879" on="0"/>
        <pt x="864" y="854" on="0"/>
        <pt x="795" y="825" on="1"/>
        <pt x="730" y="940" on="1"/>
        <pt x="797" y="983" on="0"/>
        <pt x="976" y="1035" on="0"/>
      </contour>
      <contour>
        <pt x="115" y="680" on="1"/>
        <pt x="115" y="782" on="0"/>
        <pt x="221" y="945" on="0"/>
        <pt x="402" y="1040" on="0"/>
        <pt x="515" y="1040" on="1"/>
        <pt x="629" y="1040" on="0"/>
        <pt x="810" y="945" on="0"/>
        <pt x="915" y="782" on="0"/>
        <pt x="915" y="680" on="1"/>
        <pt x="915" y="578" on="0"/>
        <pt x="810" y="418" on="0"/>
        <pt x="629" y="325" on="0"/>
        <pt x="515" y="325" on="1"/>
        <pt x="402" y="325" on="0"/>
        <pt x="221" y="418" on="0"/>
        <pt x="115" y="578" on="0"/>
      </contour>
      <contour>
        <pt x="285" y="680" on="1"/>
        <pt x="285" y="588" on="0"/>
        <pt x="415" y="465" on="0"/>
        <pt x="515" y="465" on="1"/>
        <pt x="616" y="465" on="0"/>
        <pt x="745" y="588" on="0"/>
        <pt x="745" y="680" on="1"/>
        <pt x="745" y="772" on="0"/>
        <pt x="616" y="895" on="0"/>
        <pt x="515" y="895" on="1"/>
        <pt x="415" y="895" on="0"/>
        <pt x="285" y="772" on="0"/>
      </contour>
    </TTGlyph>
    <TTGlyph name="LtnSmH" xMin="130" yMin="0" xMax="1040" yMax="1600">
      <contour>
        <pt x="1040" y="0" on="1"/>
        <pt x="855" y="0" on="1"/>
        <pt x="855" y="0" on="0"/>
        <pt x="855" y="86" on="0"/>
        <pt x="855" y="222" on="0"/>
        <pt x="855" y="374" on="0"/>
        <pt x="855" y="509" on="0"/>
        <pt x="855" y="550" on="1"/>
        <pt x="855" y="675" on="0"/>
        <pt x="811" y="812" on="0"/>
        <pt x="722" y="865" on="0"/>
        <pt x="655" y="865" on="1"/>
        <pt x="583" y="865" on="0"/>
        <pt x="451" y="779" on="0"/>
        <pt x="352" y="648" on="0"/>
        <pt x="330" y="580" on="1"/>
        <pt x="330" y="0" on="1"/>
        <pt x="145" y="0" on="1"/>
        <pt x="145" y="0" on="0"/>
        <pt x="145" y="137" on="0"/>
        <pt x="145" y="360" on="0"/>
        <pt x="145" y="623" on="0"/>
        <pt x="145" y="879" on="0"/>
        <pt x="145" y="1081" on="0"/>
        <pt x="145" y="1130" on="1"/>
        <pt x="145" y="1291" on="0"/>
        <pt x="141" y="1536" on="0"/>
        <pt x="130" y="1600" on="1"/>
        <pt x="330" y="1600" on="1"/>
        <pt x="330" y="1600" on="0"/>
        <pt x="330" y="1495" on="0"/>
        <pt x="330" y="1328" on="0"/>
        <pt x="330" y="1137" on="0"/>
        <pt x="330" y="962" on="0"/>
        <pt x="330" y="842" on="0"/>
        <pt x="330" y="830" on="1"/>
        <pt x="404" y="934" on="0"/>
        <pt x="605" y="1040" on="0"/>
        <pt x="710" y="1040" on="1"/>
        <pt x="870" y="1040" on="0"/>
        <pt x="1040" y="831" on="0"/>
        <pt x="1040" y="625" on="1"/>
        <pt x="1040" y="575" on="0"/>
        <pt x="1040" y="420" on="0"/>
        <pt x="1040" y="248" on="0"/>
        <pt x="1040" y="96" on="0"/>
        <pt x="1040" y="0" on="0"/>
      </contour>
    </TTGlyph>
    <TTGlyph name="LtnSmI" xMin="155" yMin="0" xMax="410" yMax="1480">
      <contour>
        <pt x="375" y="1020" on="1"/>
        <pt x="375" y="475" on="1"/>
        <pt x="375" y="411" on="0"/>
        <pt x="380" y="228" on="0"/>
        <pt x="389" y="54" on="0"/>
        <pt x="395" y="0" on="1"/>
        <pt x="190" y="0" on="1"/>
        <pt x="190" y="0" on="0"/>
        <pt x="190" y="109" on="0"/>
        <pt x="190" y="276" on="0"/>
        <pt x="190" y="457" on="0"/>
        <pt x="190" y="530" on="1"/>
        <pt x="190" y="676" on="0"/>
        <pt x="185" y="941" on="0"/>
        <pt x="175" y="1020" on="1"/>
      </contour>
      <contour>
        <pt x="155" y="1345" on="1"/>
        <pt x="155" y="1401" on="0"/>
        <pt x="225" y="1480" on="0"/>
        <pt x="280" y="1480" on="1"/>
        <pt x="336" y="1480" on="0"/>
        <pt x="410" y="1401" on="0"/>
        <pt x="410" y="1345" on="1"/>
        <pt x="410" y="1290" on="0"/>
        <pt x="336" y="1210" on="0"/>
        <pt x="280" y="1210" on="1"/>
        <pt x="225" y="1210" on="0"/>
        <pt x="155" y="1290" on="0"/>
      </contour>
    </TTGlyph>
    <TTGlyph name="LtnSmJ" xMin="-190" yMin="-470" xMax="440" yMax="1480">
      <contour>
        <pt x="405" y="1020" on="1"/>
        <pt x="405" y="25" on="1"/>
        <pt x="405" y="-161" on="0"/>
        <pt x="313" y="-378" on="0"/>
        <pt x="144" y="-470" on="0"/>
        <pt x="30" y="-470" on="1"/>
        <pt x="-12" y="-470" on="0"/>
        <pt x="-145" y="-436" on="0"/>
        <pt x="-190" y="-405" on="1"/>
        <pt x="-155" y="-240" on="1"/>
        <pt x="-122" y="-265" on="0"/>
        <pt x="-2" y="-300" on="0"/>
        <pt x="40" y="-300" on="1"/>
        <pt x="120" y="-300" on="0"/>
        <pt x="220" y="-173" on="0"/>
        <pt x="220" y="-25" on="1"/>
        <pt x="220" y="530" on="1"/>
        <pt x="220" y="676" on="0"/>
        <pt x="215" y="941" on="0"/>
        <pt x="205" y="1020" on="1"/>
      </contour>
      <contour>
        <pt x="185" y="1345" on="1"/>
        <pt x="185" y="1401" on="0"/>
        <pt x="255" y="1480" on="0"/>
        <pt x="310" y="1480" on="1"/>
        <pt x="366" y="1480" on="0"/>
        <pt x="440" y="1401" on="0"/>
        <pt x="440" y="1345" on="1"/>
        <pt x="440" y="1290" on="0"/>
        <pt x="366" y="1210" on="0"/>
        <pt x="310" y="1210" on="1"/>
        <pt x="255" y="1210" on="0"/>
        <pt x="185" y="1290" on="0"/>
      </contour>
    </TTGlyph>
    <TTGlyph name="LtnSmK" xMin="130" yMin="0" xMax="1015" yMax="1600">
      <contour>
        <pt x="330" y="0" on="1"/>
        <pt x="145" y="0" on="1"/>
        <pt x="145" y="0" on="0"/>
        <pt x="145" y="137" on="0"/>
        <pt x="145" y="360" on="0"/>
        <pt x="145" y="623" on="0"/>
        <pt x="145" y="879" on="0"/>
        <pt x="145" y="1081" on="0"/>
        <pt x="145" y="1130" on="1"/>
        <pt x="145" y="1291" on="0"/>
        <pt x="141" y="1536" on="0"/>
        <pt x="130" y="1600" on="1"/>
        <pt x="330" y="1600" on="1"/>
      </contour>
      <contour>
        <pt x="735" y="1020" on="1"/>
        <pt x="985" y="1020" on="1"/>
        <pt x="436" y="524" on="1"/>
        <pt x="280" y="550" on="1"/>
      </contour>
      <contour>
        <pt x="305" y="550" on="1"/>
        <pt x="410" y="660" on="1"/>
        <pt x="1015" y="0" on="1"/>
        <pt x="770" y="0" on="1"/>
      </contour>
    </TTGlyph>
    <TTGlyph name="LtnSmL" xMin="170" yMin="0" xMax="395" yMax="1600">
      <contour>
        <pt x="375" y="1600" on="1"/>
        <pt x="375" y="475" on="1"/>
        <pt x="375" y="411" on="0"/>
        <pt x="380" y="229" on="0"/>
        <pt x="389" y="55" on="0"/>
        <pt x="395" y="0" on="1"/>
        <pt x="190" y="0" on="1"/>
        <pt x="190" y="1130" on="1"/>
        <pt x="190" y="1423" on="0"/>
        <pt x="170" y="1600" on="1"/>
      </contour>
    </TTGlyph>
    <TTGlyph name="LtnSmM" xMin="125" yMin="0" xMax="1530" yMax="1040">
      <contour>
        <pt x="945" y="660" on="1"/>
        <pt x="945" y="0" on="1"/>
        <pt x="760" y="0" on="1"/>
        <pt x="760" y="570" on="1"/>
        <pt x="760" y="694" on="0"/>
        <pt x="734" y="821" on="0"/>
        <pt x="671" y="865" on="0"/>
        <pt x="615" y="865" on="1"/>
        <pt x="542" y="865" on="0"/>
        <pt x="400" y="750" on="0"/>
        <pt x="360" y="660" on="1"/>
        <pt x="360" y="0" on="1"/>
        <pt x="175" y="0" on="1"/>
        <pt x="175" y="615" on="1"/>
        <pt x="175" y="762" on="0"/>
        <pt x="141" y="968" on="0"/>
        <pt x="125" y="1020" on="1"/>
        <pt x="305" y="1020" on="1"/>
        <pt x="316" y="989" on="0"/>
        <pt x="332" y="901" on="0"/>
        <pt x="337" y="865" on="1"/>
        <pt x="429" y="971" on="0"/>
        <pt x="589" y="1040" on="0"/>
        <pt x="675" y="1040" on="1"/>
        <pt x="773" y="1040" on="0"/>
        <pt x="896" y="938" on="0"/>
        <pt x="921" y="872" on="1"/>
        <pt x="1015" y="973" on="0"/>
        <pt x="1181" y="1040" on="0"/>
        <pt x="1260" y="1040" on="1"/>
        <pt x="1412" y="1040" on="0"/>
        <pt x="1530" y="845" on="0"/>
        <pt x="1530" y="660" on="1"/>
        <pt x="1530" y="0" on="1"/>
        <pt x="1345" y="0" on="1"/>
        <pt x="1345" y="550" on="1"/>
        <pt x="1345" y="679" on="0"/>
        <pt x="1319" y="815" on="0"/>
        <pt x="1256" y="865" on="0"/>
        <pt x="1200" y="865" on="1"/>
        <pt x="1127" y="865" on="0"/>
        <pt x="989" y="754" on="0"/>
      </contour>
    </TTGlyph>
    <TTGlyph name="LtnSmN" xMin="105" yMin="0" xMax="1050" yMax="1040">
      <contour>
        <pt x="1050" y="0" on="1"/>
        <pt x="865" y="0" on="1"/>
        <pt x="865" y="0" on="0"/>
        <pt x="865" y="86" on="0"/>
        <pt x="865" y="222" on="0"/>
        <pt x="865" y="374" on="0"/>
        <pt x="865" y="509" on="0"/>
        <pt x="865" y="550" on="1"/>
        <pt x="865" y="675" on="0"/>
        <pt x="821" y="812" on="0"/>
        <pt x="733" y="865" on="0"/>
        <pt x="665" y="865" on="1"/>
        <pt x="593" y="865" on="0"/>
        <pt x="461" y="779" on="0"/>
        <pt x="362" y="648" on="0"/>
        <pt x="340" y="580" on="1"/>
        <pt x="340" y="0" on="1"/>
        <pt x="155" y="0" on="1"/>
        <pt x="155" y="0" on="0"/>
        <pt x="155" y="89" on="0"/>
        <pt x="155" y="231" on="0"/>
        <pt x="155" y="398" on="0"/>
        <pt x="155" y="557" on="0"/>
        <pt x="155" y="615" on="1"/>
        <pt x="155" y="762" on="0"/>
        <pt x="122" y="968" on="0"/>
        <pt x="105" y="1020" on="1"/>
        <pt x="285" y="1020" on="1"/>
        <pt x="293" y="999" on="0"/>
        <pt x="308" y="925" on="0"/>
        <pt x="322" y="849" on="0"/>
        <pt x="325" y="825" on="1"/>
        <pt x="420" y="939" on="0"/>
        <pt x="614" y="1040" on="0"/>
        <pt x="720" y="1040" on="1"/>
        <pt x="880" y="1040" on="0"/>
        <pt x="1050" y="831" on="0"/>
        <pt x="1050" y="625" on="1"/>
        <pt x="1050" y="575" on="0"/>
        <pt x="1050" y="420" on="0"/>
        <pt x="1050" y="248" on="0"/>
        <pt x="1050" y="96" on="0"/>
        <pt x="1050" y="0" on="0"/>
      </contour>
    </TTGlyph>
    <TTGlyph name="LtnSmO" xMin="95" yMin="-25" xMax="1045" yMax="1040">
      <contour>
        <pt x="95" y="505" on="1"/>
        <pt x="95" y="677" on="0"/>
        <pt x="228" y="916" on="0"/>
        <pt x="449" y="1040" on="0"/>
        <pt x="580" y="1040" on="1"/>
        <pt x="718" y="1040" on="0"/>
        <pt x="927" y="916" on="0"/>
        <pt x="1045" y="677" on="0"/>
        <pt x="1045" y="505" on="1"/>
        <pt x="1045" y="333" on="0"/>
        <pt x="912" y="97" on="0"/>
        <pt x="692" y="-25" on="0"/>
        <pt x="560" y="-25" on="1"/>
        <pt x="423" y="-25" on="0"/>
        <pt x="213" y="97" on="0"/>
        <pt x="95" y="333" on="0"/>
      </contour>
      <contour>
        <pt x="280" y="505" on="1"/>
        <pt x="280" y="330" on="0"/>
        <pt x="441" y="135" on="0"/>
        <pt x="570" y="135" on="1"/>
        <pt x="691" y="135" on="0"/>
        <pt x="860" y="330" on="0"/>
        <pt x="860" y="505" on="1"/>
        <pt x="860" y="681" on="0"/>
        <pt x="699" y="880" on="0"/>
        <pt x="570" y="880" on="1"/>
        <pt x="449" y="880" on="0"/>
        <pt x="280" y="681" on="0"/>
      </contour>
    </TTGlyph>
    <TTGlyph name="LtnSmP" xMin="105" yMin="-490" xMax="1075" yMax="1040">
      <contour>
        <pt x="105" y="1020" on="1"/>
        <pt x="285" y="1020" on="1"/>
        <pt x="296" y="995" on="0"/>
        <pt x="318" y="899" on="0"/>
        <pt x="325" y="830" on="1"/>
        <pt x="396" y="923" on="0"/>
        <pt x="584" y="1040" on="0"/>
        <pt x="695" y="1040" on="1"/>
        <pt x="809" y="1040" on="0"/>
        <pt x="980" y="910" on="0"/>
        <pt x="1075" y="682" on="0"/>
        <pt x="1075" y="535" on="1"/>
        <pt x="1075" y="364" on="0"/>
        <pt x="952" y="113" on="0"/>
        <pt x="746" y="-25" on="0"/>
        <pt x="620" y="-25" on="1"/>
        <pt x="540" y="-25" on="0"/>
        <pt x="411" y="35" on="0"/>
        <pt x="340" y="85" on="1"/>
        <pt x="340" y="-150" on="1"/>
        <pt x="340" y="-270" on="0"/>
        <pt x="352" y="-426" on="0"/>
        <pt x="365" y="-490" on="1"/>
        <pt x="155" y="-490" on="1"/>
        <pt x="155" y="-490" on="0"/>
        <pt x="155" y="-375" on="0"/>
        <pt x="155" y="-187" on="0"/>
        <pt x="155" y="36" on="0"/>
        <pt x="155" y="257" on="0"/>
        <pt x="155" y="437" on="0"/>
        <pt x="155" y="485" on="1"/>
        <pt x="155" y="672" on="0"/>
        <pt x="139" y="935" on="0"/>
      </contour>
      <contour>
        <pt x="340" y="575" on="1"/>
        <pt x="340" y="260" on="1"/>
        <pt x="409" y="212" on="0"/>
        <pt x="499" y="160" on="0"/>
        <pt x="574" y="140" on="0"/>
        <pt x="620" y="140" on="1"/>
        <pt x="691" y="140" on="0"/>
        <pt x="814" y="228" on="0"/>
        <pt x="890" y="392" on="0"/>
        <pt x="890" y="505" on="1"/>
        <pt x="890" y="672" on="0"/>
        <pt x="768" y="870" on="0"/>
        <pt x="660" y="870" on="1"/>
        <pt x="574" y="870" on="0"/>
        <pt x="396" y="720" on="0"/>
      </contour>
    </TTGlyph>
    <TTGlyph name="LtnSmQ" xMin="105" yMin="-490" xMax="1005" yMax="1040">
      <contour>
        <pt x="795" y="-490" on="1"/>
        <pt x="795" y="140" on="1"/>
        <pt x="717" y="49" on="0"/>
        <pt x="575" y="-25" on="0"/>
        <pt x="505" y="-25" on="1"/>
        <pt x="413" y="-25" on="0"/>
        <pt x="228" y="73" on="0"/>
        <pt x="105" y="276" on="0"/>
        <pt x="105" y="435" on="1"/>
        <pt x="105" y="550" on="0"/>
        <pt x="165" y="766" on="0"/>
        <pt x="291" y="939" on="0"/>
        <pt x="488" y="1040" on="0"/>
        <pt x="625" y="1040" on="1"/>
        <pt x="716" y="1040" on="0"/>
        <pt x="899" y="992" on="0"/>
        <pt x="980" y="965" on="1"/>
        <pt x="980" y="965" on="0"/>
        <pt x="980" y="857" on="0"/>
        <pt x="980" y="676" on="0"/>
        <pt x="980" y="455" on="0"/>
        <pt x="980" y="226" on="0"/>
        <pt x="980" y="23" on="0"/>
        <pt x="980" y="-123" on="0"/>
        <pt x="980" y="-150" on="1"/>
        <pt x="980" y="-270" on="0"/>
        <pt x="992" y="-426" on="0"/>
        <pt x="1005" y="-490" on="1"/>
      </contour>
      <contour>
        <pt x="795" y="365" on="1"/>
        <pt x="795" y="830" on="1"/>
        <pt x="750" y="847" on="0"/>
        <pt x="641" y="870" on="0"/>
        <pt x="595" y="870" on="1"/>
        <pt x="486" y="870" on="0"/>
        <pt x="351" y="756" on="0"/>
        <pt x="290" y="580" on="0"/>
        <pt x="290" y="485" on="1"/>
        <pt x="290" y="361" on="0"/>
        <pt x="360" y="212" on="0"/>
        <pt x="466" y="145" on="0"/>
        <pt x="520" y="145" on="1"/>
        <pt x="589" y="145" on="0"/>
        <pt x="734" y="256" on="0"/>
      </contour>
    </TTGlyph>
    <TTGlyph name="LtnSmR" xMin="105" yMin="0" xMax="880" yMax="1040">
      <contour>
        <pt x="340" y="0" on="1"/>
        <pt x="155" y="0" on="1"/>
        <pt x="155" y="615" on="1"/>
        <pt x="155" y="762" on="0"/>
        <pt x="122" y="968" on="0"/>
        <pt x="105" y="1020" on="1"/>
        <pt x="285" y="1020" on="1"/>
        <pt x="293" y="999" on="0"/>
        <pt x="308" y="925" on="0"/>
        <pt x="322" y="849" on="0"/>
        <pt x="325" y="825" on="1"/>
        <pt x="398" y="929" on="0"/>
        <pt x="582" y="1040" on="0"/>
        <pt x="650" y="1040" on="1"/>
        <pt x="734" y="1040" on="0"/>
        <pt x="835" y="945" on="0"/>
        <pt x="880" y="793" on="0"/>
        <pt x="880" y="705" on="1"/>
        <pt x="720" y="670" on="1"/>
        <pt x="720" y="745" on="0"/>
        <pt x="664" y="860" on="0"/>
        <pt x="605" y="860" on="1"/>
        <pt x="563" y="860" on="0"/>
        <pt x="456" y="777" on="0"/>
        <pt x="362" y="648" on="0"/>
        <pt x="340" y="580" on="1"/>
      </contour>
    </TTGlyph>
    <TTGlyph name="LtnSmS" xMin="110" yMin="-25" xMax="880" yMax="1040">
      <contour>
        <pt x="835" y="960" on="1"/>
        <pt x="800" y="785" on="1"/>
        <pt x="750" y="814" on="0"/>
        <pt x="598" y="880" on="0"/>
        <pt x="505" y="880" on="1"/>
        <pt x="395" y="880" on="0"/>
        <pt x="310" y="795" on="0"/>
        <pt x="310" y="750" on="1"/>
        <pt x="310" y="715" on="0"/>
        <pt x="343" y="666" on="0"/>
        <pt x="445" y="624" on="0"/>
        <pt x="550" y="600" on="1"/>
        <pt x="641" y="580" on="0"/>
        <pt x="790" y="508" on="0"/>
        <pt x="880" y="388" on="0"/>
        <pt x="880" y="295" on="1"/>
        <pt x="880" y="205" on="0"/>
        <pt x="777" y="60" on="0"/>
        <pt x="603" y="-25" on="0"/>
        <pt x="495" y="-25" on="1"/>
        <pt x="374" y="-25" on="0"/>
        <pt x="169" y="44" on="0"/>
        <pt x="110" y="90" on="1"/>
        <pt x="160" y="270" on="1"/>
        <pt x="228" y="209" on="0"/>
        <pt x="421" y="135" on="0"/>
        <pt x="500" y="135" on="1"/>
        <pt x="588" y="135" on="0"/>
        <pt x="700" y="218" on="0"/>
        <pt x="700" y="270" on="1"/>
        <pt x="700" y="308" on="0"/>
        <pt x="656" y="371" on="0"/>
        <pt x="537" y="428" on="0"/>
        <pt x="425" y="455" on="1"/>
        <pt x="304" y="485" on="0"/>
        <pt x="176" y="570" on="0"/>
        <pt x="130" y="678" on="0"/>
        <pt x="130" y="740" on="1"/>
        <pt x="130" y="775" on="0"/>
        <pt x="166" y="875" on="0"/>
        <pt x="251" y="974" on="0"/>
        <pt x="401" y="1040" on="0"/>
        <pt x="515" y="1040" on="1"/>
        <pt x="624" y="1040" on="0"/>
        <pt x="783" y="989" on="0"/>
      </contour>
    </TTGlyph>
    <TTGlyph name="LtnSmT" xMin="30" yMin="-25" xMax="760" yMax="1320">
      <contour>
        <pt x="760" y="215" on="1"/>
        <pt x="760" y="55" on="1"/>
        <pt x="691" y="11" on="0"/>
        <pt x="565" y="-25" on="0"/>
        <pt x="512" y="-25" on="1"/>
        <pt x="434" y="-25" on="0"/>
        <pt x="306" y="26" on="0"/>
        <pt x="230" y="155" on="0"/>
        <pt x="230" y="270" on="1"/>
        <pt x="230" y="311" on="0"/>
        <pt x="230" y="496" on="0"/>
        <pt x="230" y="734" on="0"/>
        <pt x="230" y="980" on="0"/>
        <pt x="230" y="1190" on="0"/>
        <pt x="230" y="1320" on="0"/>
        <pt x="230" y="1320" on="1"/>
        <pt x="415" y="1320" on="1"/>
        <pt x="415" y="1320" on="0"/>
        <pt x="415" y="1204" on="0"/>
        <pt x="415" y="1016" on="0"/>
        <pt x="415" y="797" on="0"/>
        <pt x="415" y="586" on="0"/>
        <pt x="415" y="425" on="0"/>
        <pt x="415" y="390" on="1"/>
        <pt x="415" y="287" on="0"/>
        <pt x="442" y="179" on="0"/>
        <pt x="498" y="140" on="0"/>
        <pt x="543" y="140" on="1"/>
        <pt x="625" y="140" on="0"/>
      </contour>
      <contour>
        <pt x="30" y="850" on="1"/>
        <pt x="30" y="995" on="1"/>
        <pt x="740" y="995" on="1"/>
        <pt x="740" y="850" on="1"/>
      </contour>
    </TTGlyph>
    <TTGlyph name="LtnSmU" xMin="135" yMin="-25" xMax="1090" yMax="1020">
      <contour>
        <pt x="1090" y="0" on="1"/>
        <pt x="920" y="0" on="1"/>
        <pt x="906" y="35" on="0"/>
        <pt x="873" y="144" on="0"/>
        <pt x="865" y="200" on="1"/>
        <pt x="774" y="90" on="0"/>
        <pt x="580" y="-25" on="0"/>
        <pt x="475" y="-25" on="1"/>
        <pt x="155" y="-25" on="0"/>
        <pt x="155" y="405" on="1"/>
        <pt x="155" y="412" on="0"/>
        <pt x="155" y="498" on="0"/>
        <pt x="155" y="607" on="0"/>
        <pt x="155" y="693" on="0"/>
        <pt x="155" y="700" on="1"/>
        <pt x="155" y="795" on="0"/>
        <pt x="149" y="930" on="0"/>
        <pt x="135" y="1020" on="1"/>
        <pt x="340" y="1020" on="1"/>
        <pt x="340" y="1020" on="0"/>
        <pt x="340" y="933" on="0"/>
        <pt x="340" y="796" on="0"/>
        <pt x="340" y="643" on="0"/>
        <pt x="340" y="506" on="0"/>
        <pt x="340" y="465" on="1"/>
        <pt x="340" y="295" on="0"/>
        <pt x="415" y="140" on="0"/>
        <pt x="510" y="140" on="1"/>
        <pt x="569" y="140" on="0"/>
        <pt x="702" y="229" on="0"/>
        <pt x="814" y="359" on="0"/>
        <pt x="840" y="420" on="1"/>
        <pt x="840" y="700" on="1"/>
        <pt x="840" y="766" on="0"/>
        <pt x="838" y="864" on="0"/>
        <pt x="829" y="959" on="0"/>
        <pt x="820" y="1020" on="1"/>
        <pt x="1025" y="1020" on="1"/>
        <pt x="1025" y="1020" on="0"/>
        <pt x="1025" y="900" on="0"/>
        <pt x="1025" y="717" on="0"/>
        <pt x="1025" y="524" on="0"/>
        <pt x="1025" y="450" on="1"/>
        <pt x="1025" y="305" on="0"/>
        <pt x="1059" y="84" on="0"/>
      </contour>
    </TTGlyph>
    <TTGlyph name="LtnSmV" xMin="20" yMin="0" xMax="1050" yMax="1020">
      <contour>
        <pt x="840" y="1020" on="1"/>
        <pt x="1050" y="1020" on="1"/>
        <pt x="1022" y="963" on="0"/>
        <pt x="963" y="828" on="0"/>
        <pt x="912" y="705" on="0"/>
        <pt x="895" y="665" on="1"/>
        <pt x="879" y="626" on="0"/>
        <pt x="816" y="469" on="0"/>
        <pt x="742" y="282" on="0"/>
        <pt x="674" y="111" on="0"/>
        <pt x="630" y="0" on="0"/>
        <pt x="630" y="0" on="1"/>
        <pt x="440" y="0" on="1"/>
        <pt x="440" y="0" on="0"/>
        <pt x="398" y="106" on="0"/>
        <pt x="332" y="272" on="0"/>
        <pt x="258" y="457" on="0"/>
        <pt x="194" y="619" on="0"/>
        <pt x="175" y="665" on="1"/>
        <pt x="159" y="706" on="0"/>
        <pt x="107" y="828" on="0"/>
        <pt x="48" y="963" on="0"/>
        <pt x="20" y="1020" on="1"/>
        <pt x="230" y="1020" on="1"/>
        <pt x="535" y="200" on="1"/>
      </contour>
    </TTGlyph>
    <TTGlyph name="LtnSmW" xMin="45" yMin="0" xMax="1505" yMax="1020">
      <contour>
        <pt x="700" y="1020" on="1"/>
        <pt x="850" y="1020" on="1"/>
        <pt x="1110" y="215" on="1"/>
        <pt x="1320" y="1020" on="1"/>
        <pt x="1505" y="1020" on="1"/>
        <pt x="1482" y="944" on="0"/>
        <pt x="1447" y="829" on="0"/>
        <pt x="1417" y="725" on="0"/>
        <pt x="1400" y="665" on="1"/>
        <pt x="1215" y="0" on="1"/>
        <pt x="1025" y="0" on="1"/>
        <pt x="775" y="785" on="1"/>
        <pt x="525" y="0" on="1"/>
        <pt x="335" y="0" on="1"/>
        <pt x="150" y="665" on="1"/>
        <pt x="128" y="745" on="0"/>
        <pt x="80" y="905" on="0"/>
        <pt x="45" y="1020" on="1"/>
        <pt x="230" y="1020" on="1"/>
        <pt x="440" y="215" on="1"/>
      </contour>
    </TTGlyph>
    <TTGlyph name="LtnSmX" xMin="50" yMin="0" xMax="1035" yMax="1020">
      <contour>
        <pt x="805" y="0" on="1"/>
        <pt x="270" y="750" on="1"/>
        <pt x="237" y="797" on="0"/>
        <pt x="182" y="868" on="0"/>
        <pt x="114" y="954" on="0"/>
        <pt x="60" y="1020" on="1"/>
        <pt x="290" y="1020" on="1"/>
        <pt x="830" y="270" on="1"/>
        <pt x="866" y="220" on="0"/>
        <pt x="918" y="153" on="0"/>
        <pt x="981" y="71" on="0"/>
        <pt x="1035" y="0" on="1"/>
      </contour>
      <contour>
        <pt x="489" y="616" on="1"/>
        <pt x="556" y="404" on="1"/>
        <pt x="275" y="0" on="1"/>
        <pt x="50" y="0" on="1"/>
        <pt x="105" y="72" on="0"/>
        <pt x="170" y="158" on="0"/>
        <pt x="220" y="226" on="0"/>
        <pt x="250" y="270" on="1"/>
      </contour>
      <contour>
        <pt x="585" y="405" on="1"/>
        <pt x="520" y="615" on="1"/>
        <pt x="795" y="1020" on="1"/>
        <pt x="1020" y="1020" on="1"/>
        <pt x="969" y="953" on="0"/>
        <pt x="903" y="867" on="0"/>
        <pt x="852" y="796" on="0"/>
        <pt x="820" y="750" on="1"/>
      </contour>
    </TTGlyph>
    <TTGlyph name="LtnSmY" xMin="-20" yMin="-470" xMax="1040" yMax="1020">
      <contour>
        <pt x="610" y="60" on="1"/>
        <pt x="525" y="-165" on="1"/>
        <pt x="190" y="665" on="1"/>
        <pt x="162" y="733" on="0"/>
        <pt x="88" y="903" on="0"/>
        <pt x="30" y="1020" on="1"/>
        <pt x="230" y="1020" on="1"/>
      </contour>
      <contour>
        <pt x="895" y="665" on="1"/>
        <pt x="655" y="0" on="1"/>
        <pt x="586" y="-191" on="0"/>
        <pt x="453" y="-395" on="0"/>
        <pt x="310" y="-470" on="0"/>
        <pt x="225" y="-470" on="1"/>
        <pt x="157" y="-470" on="0"/>
        <pt x="35" y="-425" on="0"/>
        <pt x="-20" y="-385" on="1"/>
        <pt x="40" y="-225" on="1"/>
        <pt x="72" y="-251" on="0"/>
        <pt x="176" y="-300" on="0"/>
        <pt x="225" y="-300" on="1"/>
        <pt x="270" y="-300" on="0"/>
        <pt x="355" y="-249" on="0"/>
        <pt x="446" y="-96" on="0"/>
        <pt x="500" y="55" on="1"/>
        <pt x="516" y="99" on="0"/>
        <pt x="578" y="273" on="0"/>
        <pt x="655" y="491" on="0"/>
        <pt x="733" y="715" on="0"/>
        <pt x="799" y="904" on="0"/>
        <pt x="840" y="1020" on="0"/>
        <pt x="840" y="1020" on="1"/>
        <pt x="1040" y="1020" on="1"/>
        <pt x="988" y="904" on="0"/>
        <pt x="920" y="735" on="0"/>
      </contour>
    </TTGlyph>
    <TTGlyph name="NonBreakingHyphen" xMin="80" yMin="555" xMax="780" yMax="705">
      <component glyphName="HyphenMinus" x="0" y="0" flags="0x204"/>
    </TTGlyph>
    <TTGlyph name="NumSgn" xMin="25" yMin="200" xMax="1175" yMax="1460">
      <contour>
        <pt x="487" y="1460" on="1"/>
        <pt x="637" y="1460" on="1"/>
        <pt x="277" y="200" on="1"/>
        <pt x="127" y="200" on="1"/>
      </contour>
      <contour>
        <pt x="25" y="575" on="1"/>
        <pt x="25" y="725" on="1"/>
        <pt x="1116" y="725" on="1"/>
        <pt x="1116" y="575" on="1"/>
      </contour>
      <contour>
        <pt x="84" y="960" on="1"/>
        <pt x="84" y="1110" on="1"/>
        <pt x="1175" y="1110" on="1"/>
        <pt x="1175" y="960" on="1"/>
      </contour>
      <contour>
        <pt x="912" y="1460" on="1"/>
        <pt x="1062" y="1460" on="1"/>
        <pt x="702" y="200" on="1"/>
        <pt x="552" y="200" on="1"/>
      </contour>
    </TTGlyph>
    <TTGlyph name="PercentSgn" xMin="100" yMin="-25" xMax="1426" yMax="1480">
      <contour>
        <pt x="1261" y="366" on="1"/>
        <pt x="1261" y="516" on="0"/>
        <pt x="1198" y="630" on="0"/>
        <pt x="1130" y="630" on="1"/>
        <pt x="1065" y="630" on="0"/>
        <pt x="1001" y="519" on="0"/>
        <pt x="1001" y="381" on="1"/>
        <pt x="1001" y="231" on="0"/>
        <pt x="1063" y="115" on="0"/>
        <pt x="1130" y="115" on="1"/>
        <pt x="1195" y="115" on="0"/>
        <pt x="1261" y="228" on="0"/>
      </contour>
      <contour>
        <pt x="1426" y="379" on="1"/>
        <pt x="1426" y="158" on="0"/>
        <pt x="1257" y="-25" on="0"/>
        <pt x="1126" y="-25" on="1"/>
        <pt x="995" y="-25" on="0"/>
        <pt x="836" y="157" on="0"/>
        <pt x="836" y="368" on="1"/>
        <pt x="836" y="580" on="0"/>
        <pt x="1005" y="770" on="0"/>
        <pt x="1135" y="770" on="1"/>
        <pt x="1266" y="770" on="0"/>
        <pt x="1426" y="584" on="0"/>
      </contour>
      <contour>
        <pt x="1073" y="1480" on="1"/>
        <pt x="1239" y="1480" on="1"/>
        <pt x="459" y="-25" on="1"/>
        <pt x="291" y="-25" on="1"/>
      </contour>
      <contour>
        <pt x="525" y="1076" on="1"/>
        <pt x="525" y="1226" on="0"/>
        <pt x="462" y="1340" on="0"/>
        <pt x="394" y="1340" on="1"/>
        <pt x="329" y="1340" on="0"/>
        <pt x="265" y="1229" on="0"/>
        <pt x="265" y="1091" on="1"/>
        <pt x="265" y="941" on="0"/>
        <pt x="327" y="825" on="0"/>
        <pt x="394" y="825" on="1"/>
        <pt x="459" y="825" on="0"/>
        <pt x="525" y="938" on="0"/>
      </contour>
      <contour>
        <pt x="690" y="1089" on="1"/>
        <pt x="690" y="868" on="0"/>
        <pt x="521" y="685" on="0"/>
        <pt x="390" y="685" on="1"/>
        <pt x="259" y="685" on="0"/>
        <pt x="100" y="867" on="0"/>
        <pt x="100" y="1078" on="1"/>
        <pt x="100" y="1290" on="0"/>
        <pt x="269" y="1480" on="0"/>
        <pt x="399" y="1480" on="1"/>
        <pt x="530" y="1480" on="0"/>
        <pt x="690" y="1294" on="0"/>
      </contour>
    </TTGlyph>
    <TTGlyph name="PlusSgn" xMin="155" yMin="285" xMax="1045" yMax="1180">
      <contour>
        <pt x="525" y="1180" on="1"/>
        <pt x="675" y="1180" on="1"/>
        <pt x="675" y="285" on="1"/>
        <pt x="525" y="285" on="1"/>
      </contour>
      <contour>
        <pt x="155" y="660" on="1"/>
        <pt x="155" y="810" on="1"/>
        <pt x="1045" y="810" on="1"/>
        <pt x="1045" y="660" on="1"/>
      </contour>
    </TTGlyph>
    <TTGlyph name="QstnMrk" xMin="140" yMin="-25" xMax="830" yMax="1540">
      <contour>
        <pt x="460" y="1540" on="1"/>
        <pt x="638" y="1540" on="0"/>
        <pt x="830" y="1377" on="0"/>
        <pt x="830" y="1240" on="1"/>
        <pt x="830" y="1148" on="0"/>
        <pt x="731" y="1003" on="0"/>
        <pt x="665" y="927" on="1"/>
        <pt x="613" y="867" on="0"/>
        <pt x="559" y="750" on="0"/>
        <pt x="540" y="581" on="0"/>
        <pt x="540" y="440" on="1"/>
        <pt x="355" y="440" on="1"/>
        <pt x="355" y="585" on="0"/>
        <pt x="383" y="784" on="0"/>
        <pt x="441" y="924" on="0"/>
        <pt x="485" y="980" on="1"/>
        <pt x="550" y="1064" on="0"/>
        <pt x="625" y="1177" on="0"/>
        <pt x="625" y="1230" on="1"/>
        <pt x="625" y="1274" on="0"/>
        <pt x="542" y="1365" on="0"/>
        <pt x="432" y="1365" on="1"/>
        <pt x="372" y="1365" on="0"/>
        <pt x="242" y="1310" on="0"/>
        <pt x="185" y="1251" on="1"/>
        <pt x="140" y="1430" on="1"/>
        <pt x="190" y="1477" on="0"/>
        <pt x="366" y="1540" on="0"/>
      </contour>
      <contour>
        <pt x="315" y="110" on="1"/>
        <pt x="315" y="166" on="0"/>
        <pt x="395" y="245" on="0"/>
        <pt x="450" y="245" on="1"/>
        <pt x="506" y="245" on="0"/>
        <pt x="585" y="166" on="0"/>
        <pt x="585" y="110" on="1"/>
        <pt x="585" y="55" on="0"/>
        <pt x="506" y="-25" on="0"/>
        <pt x="450" y="-25" on="1"/>
        <pt x="395" y="-25" on="0"/>
        <pt x="315" y="55" on="0"/>
      </contour>
    </TTGlyph>
    <TTGlyph name="QuotMrk" xMin="240" yMin="1045" xMax="785" yMax="1585">
      <contour>
        <pt x="405" y="1045" on="1"/>
        <pt x="280" y="1045" on="1"/>
        <pt x="277" y="1151" on="0"/>
        <pt x="263" y="1401" on="0"/>
        <pt x="240" y="1585" on="1"/>
        <pt x="445" y="1585" on="1"/>
        <pt x="423" y="1401" on="0"/>
        <pt x="409" y="1151" on="0"/>
      </contour>
      <contour>
        <pt x="745" y="1045" on="1"/>
        <pt x="620" y="1045" on="1"/>
        <pt x="617" y="1151" on="0"/>
        <pt x="603" y="1401" on="0"/>
        <pt x="580" y="1585" on="1"/>
        <pt x="785" y="1585" on="1"/>
        <pt x="763" y="1401" on="0"/>
        <pt x="749" y="1151" on="0"/>
      </contour>
    </TTGlyph>
    <TTGlyph name="ReverseSolidus" xMin="10" yMin="-245" xMax="990" yMax="1600">
      <contour>
        <pt x="990" y="-245" on="1"/>
        <pt x="840" y="-245" on="1"/>
        <pt x="10" y="1600" on="1"/>
        <pt x="160" y="1600" on="1"/>
      </contour>
    </TTGlyph>
    <TTGlyph name="RtCurlyBrac" xMin="160" yMin="-410" xMax="790" yMax="1640">
      <contour>
        <pt x="790" y="615" on="1"/>
        <pt x="790" y="603" on="0"/>
        <pt x="737" y="559" on="0"/>
        <pt x="663" y="509" on="0"/>
        <pt x="600" y="464" on="0"/>
        <pt x="590" y="450" on="1"/>
        <pt x="584" y="442" on="0"/>
        <pt x="576" y="340" on="0"/>
        <pt x="570" y="187" on="0"/>
        <pt x="561" y="14" on="0"/>
        <pt x="546" y="-147" on="0"/>
        <pt x="523" y="-265" on="0"/>
        <pt x="505" y="-285" on="1"/>
        <pt x="485" y="-307" on="0"/>
        <pt x="379" y="-355" on="0"/>
        <pt x="252" y="-396" on="0"/>
        <pt x="200" y="-410" on="1"/>
        <pt x="160" y="-270" on="1"/>
        <pt x="194" y="-258" on="0"/>
        <pt x="285" y="-222" on="0"/>
        <pt x="360" y="-184" on="0"/>
        <pt x="370" y="-170" on="1"/>
        <pt x="378" y="-158" on="0"/>
        <pt x="388" y="-59" on="0"/>
        <pt x="393" y="83" on="0"/>
        <pt x="396" y="239" on="0"/>
        <pt x="400" y="380" on="0"/>
        <pt x="405" y="476" on="0"/>
        <pt x="410" y="485" on="1"/>
        <pt x="417" y="499" on="0"/>
        <pt x="466" y="536" on="0"/>
        <pt x="525" y="575" on="0"/>
        <pt x="569" y="607" on="0"/>
        <pt x="570" y="615" on="1"/>
        <pt x="569" y="623" on="0"/>
        <pt x="525" y="655" on="0"/>
        <pt x="466" y="694" on="0"/>
        <pt x="417" y="732" on="0"/>
        <pt x="410" y="745" on="1"/>
        <pt x="405" y="755" on="0"/>
        <pt x="400" y="850" on="0"/>
        <pt x="396" y="991" on="0"/>
        <pt x="393" y="1147" on="0"/>
        <pt x="388" y="1289" on="0"/>
        <pt x="378" y="1388" on="0"/>
        <pt x="370" y="1400" on="1"/>
        <pt x="360" y="1414" on="0"/>
        <pt x="285" y="1452" on="0"/>
        <pt x="194" y="1489" on="0"/>
        <pt x="160" y="1500" on="1"/>
        <pt x="200" y="1640" on="1"/>
        <pt x="252" y="1627" on="0"/>
        <pt x="379" y="1585" on="0"/>
        <pt x="485" y="1538" on="0"/>
        <pt x="505" y="1515" on="1"/>
        <pt x="523" y="1495" on="0"/>
        <pt x="546" y="1377" on="0"/>
        <pt x="561" y="1216" on="0"/>
        <pt x="570" y="1043" on="0"/>
        <pt x="576" y="890" on="0"/>
        <pt x="584" y="788" on="0"/>
        <pt x="590" y="780" on="1"/>
        <pt x="600" y="767" on="0"/>
        <pt x="663" y="721" on="0"/>
        <pt x="737" y="671" on="0"/>
        <pt x="790" y="627" on="0"/>
      </contour>
    </TTGlyph>
    <TTGlyph name="RtParen" xMin="165" yMin="-410" xMax="680" yMax="1640">
      <contour>
        <pt x="680" y="625" on="1"/>
        <pt x="680" y="320" on="0"/>
        <pt x="466" y="-196" on="0"/>
        <pt x="260" y="-410" on="1"/>
        <pt x="165" y="-265" on="1"/>
        <pt x="334" y="-72" on="0"/>
        <pt x="490" y="365" on="0"/>
        <pt x="490" y="625" on="1"/>
        <pt x="490" y="878" on="0"/>
        <pt x="334" y="1331" on="0"/>
        <pt x="165" y="1485" on="1"/>
        <pt x="240" y="1640" on="1"/>
        <pt x="373" y="1542" on="0"/>
        <pt x="570" y="1233" on="0"/>
        <pt x="680" y="844" on="0"/>
      </contour>
    </TTGlyph>
    <TTGlyph name="RtSqrBrac" xMin="150" yMin="-410" xMax="590" yMax="1600">
      <contour>
        <pt x="590" y="-410" on="1"/>
        <pt x="150" y="-410" on="1"/>
        <pt x="150" y="-260" on="1"/>
        <pt x="405" y="-260" on="1"/>
        <pt x="405" y="1450" on="1"/>
        <pt x="150" y="1450" on="1"/>
        <pt x="150" y="1600" on="1"/>
        <pt x="590" y="1600" on="1"/>
      </contour>
    </TTGlyph>
    <TTGlyph name="Semicolon" xMin="185" yMin="-270" xMax="465" yMax="925">
      <contour>
        <pt x="185" y="790" on="1"/>
        <pt x="185" y="846" on="0"/>
        <pt x="265" y="925" on="0"/>
        <pt x="320" y="925" on="1"/>
        <pt x="376" y="925" on="0"/>
        <pt x="455" y="846" on="0"/>
        <pt x="455" y="790" on="1"/>
        <pt x="455" y="735" on="0"/>
        <pt x="376" y="655" on="0"/>
        <pt x="320" y="655" on="1"/>
        <pt x="265" y="655" on="0"/>
        <pt x="185" y="735" on="0"/>
      </contour>
      <contour>
        <pt x="185" y="50" on="1"/>
        <pt x="185" y="150" on="1"/>
        <pt x="195" y="197" on="0"/>
        <pt x="277" y="250" on="0"/>
        <pt x="320" y="250" on="1"/>
        <pt x="380" y="250" on="0"/>
        <pt x="465" y="161" on="0"/>
        <pt x="465" y="85" on="1"/>
        <pt x="465" y="-6" on="0"/>
        <pt x="378" y="-187" on="0"/>
        <pt x="290" y="-270" on="1"/>
        <pt x="190" y="-230" on="1"/>
        <pt x="219" y="-201" on="0"/>
        <pt x="282" y="-108" on="0"/>
        <pt x="325" y="-1" on="0"/>
        <pt x="325" y="50" on="1"/>
      </contour>
    </TTGlyph>
    <TTGlyph name="Solidus" xMin="10" yMin="-245" xMax="990" yMax="1600">
      <contour>
        <pt x="840" y="1600" on="1"/>
        <pt x="990" y="1600" on="1"/>
        <pt x="160" y="-245" on="1"/>
        <pt x="10" y="-245" on="1"/>
      </contour>
    </TTGlyph>
    <TTGlyph name="Tilde" xMin="20" yMin="360" xMax="1080" yMax="615">
      <contour>
        <pt x="125" y="375" on="1"/>
        <pt x="20" y="375" on="1"/>
        <pt x="20" y="436" on="0"/>
        <pt x="69" y="546" on="0"/>
        <pt x="167" y="615" on="0"/>
        <pt x="240" y="615" on="1"/>
        <pt x="351" y="615" on="0"/>
        <pt x="541" y="562" on="0"/>
        <pt x="737" y="510" on="0"/>
        <pt x="855" y="510" on="1"/>
        <pt x="917" y="510" on="0"/>
        <pt x="970" y="576" on="0"/>
        <pt x="975" y="610" on="1"/>
        <pt x="1080" y="610" on="1"/>
        <pt x="1080" y="546" on="0"/>
        <pt x="1029" y="432" on="0"/>
        <pt x="925" y="360" on="0"/>
        <pt x="845" y="360" on="1"/>
        <pt x="730" y="360" on="0"/>
        <pt x="520" y="413" on="0"/>
        <pt x="328" y="465" on="0"/>
        <pt x="240" y="465" on="1"/>
        <pt x="182" y="465" on="0"/>
        <pt x="129" y="412" on="0"/>
      </contour>
    </TTGlyph>
    <TTGlyph name="VertLine" xMin="270" yMin="-390" xMax="420" yMax="1600">
      <contour>
        <pt x="270" y="1600" on="1"/>
        <pt x="420" y="1600" on="1"/>
        <pt x="420" y="-390" on="1"/>
        <pt x="270" y="-390" on="1"/>
      </contour>
    </TTGlyph>
</ttFont>
